<svg width="104" height="99" viewBox="0 0 104 99" fill="none" xmlns="http://www.w3.org/2000/svg">
<g clip-path="url(#clip0_600_2149)">
<path d="M51.9625 98.8892C50.5042 98.8892 49.0459 98.5054 47.7411 97.7379C1.99646 72.4095 -0.0758639 40.8641 0.000888872 34.1866C0.000888872 34.1098 0.000888872 34.0331 0.000888872 33.9563C0.000888872 15.1519 13.8164 0.415361 31.5463 0.261856C36.8422 -0.0451556 44.7478 1.25964 51.5788 6.32532C56.6444 2.64119 63.3219 0.261856 72.1485 0.261856C90.0319 0.261856 104.001 15.0751 104.001 33.9563C104.001 34.0331 104.001 34.1098 104.001 34.1866C104.078 40.8641 102.005 72.4095 56.1839 97.7379C55.1861 98.2751 54.1116 98.6589 53.0371 98.8124C52.6533 98.8124 52.3463 98.8892 51.9625 98.8892ZM16.2725 33.8796C16.2725 33.9563 16.2725 34.1098 16.2725 34.1866C16.2725 34.2633 16.2725 34.3401 16.2725 34.4168C16.1957 37.1032 16.6562 60.3593 51.9625 81.3895C87.2688 60.436 87.7293 37.1032 87.6526 34.4168C87.6526 34.3401 87.6526 34.1866 87.6526 34.1098V33.8796C87.6526 22.5969 79.5935 16.5334 72.0717 16.5334C67.5433 16.5334 64.1662 17.608 61.6334 19.2198C63.0149 22.5202 64.0895 26.281 64.6267 30.7327C64.6267 30.963 64.7035 31.27 64.7035 31.5002C64.7802 33.7261 64.7035 41.2478 60.1751 45.9298C57.9492 48.3091 54.9559 49.6139 51.6555 49.6906C48.2016 49.6906 44.9013 48.3858 42.5219 45.9298C37.84 41.0943 37.84 33.3423 37.9168 31.1165C37.9168 31.0397 37.9168 31.0397 37.9168 30.963C38.147 27.6626 39.068 23.3644 41.0636 19.0663C40.6799 18.836 40.2961 18.6058 39.9123 18.3755C36.3049 16.5334 32.6976 16.6102 32.3138 16.6102C32.0835 16.6102 32.0068 16.6102 31.7765 16.6102C24.3315 16.5334 16.3492 22.5969 16.2725 33.8796Z" fill="#2ED06E"/>
<path d="M67.925 12.3889C67.4645 12.4657 67.004 12.3889 66.6202 12.2354C66.2365 12.0819 65.8527 11.9284 65.5457 11.6214C65.2387 11.3144 65.0084 11.0074 64.7782 10.5469C64.5479 10.0864 64.4712 9.70259 64.4712 9.16532C64.3944 8.39779 64.4712 7.78377 64.7014 7.2465C64.9317 6.70923 65.2387 6.24871 65.6992 5.9417C66.1597 5.63469 66.697 5.40443 67.311 5.32768C68.0785 5.25093 68.6926 5.40443 69.2298 5.71144C69.7671 6.01845 70.0741 6.47897 70.3811 7.09299L69.5368 7.32325C69.3833 6.93949 69.0763 6.63248 68.7693 6.40222C68.3856 6.17196 68.0018 6.09521 67.5413 6.17196C67.004 6.24871 66.6202 6.40222 66.3132 6.63248C66.0062 6.86274 65.776 7.2465 65.6225 7.70702C65.469 8.16753 65.469 8.62805 65.469 9.16532C65.5457 9.70259 65.6225 10.1631 65.8527 10.5469C66.083 10.9306 66.39 11.2376 66.697 11.4679C67.0808 11.6982 67.4645 11.7749 68.0018 11.6982C68.4623 11.6214 68.8461 11.5447 69.0763 11.3144C69.3833 11.0841 69.5368 10.8539 69.6904 10.4701C69.8439 10.1631 69.9206 9.70259 69.8439 9.24207L68.3856 9.39558L68.3088 8.7048L70.6881 8.47454C70.6881 8.5513 70.6881 8.62805 70.6881 8.7048C70.6881 8.78155 70.6881 8.85831 70.6881 8.85831C70.7649 9.47233 70.6881 10.0864 70.4579 10.5469C70.3044 11.0841 69.9974 11.4679 69.5368 11.7749C69.1531 12.1587 68.6158 12.3122 67.925 12.3889Z" fill="#FFFCF3"/>
<path d="M74.4497 12.4657C73.7589 12.3889 73.2217 12.1587 72.7611 11.7749C72.3006 11.3912 71.9936 10.9306 71.8401 10.3934C71.6866 9.8561 71.6099 9.16532 71.7634 8.47455C71.9169 7.78377 72.0704 7.16975 72.3774 6.70924C72.6844 6.24872 73.1449 5.86495 73.6054 5.6347C74.0659 5.40444 74.7567 5.32769 75.3707 5.40444C76.0615 5.48119 76.5988 5.71145 77.0593 6.09521C77.5198 6.47898 77.8268 6.93949 77.9803 7.47676C78.1338 8.01403 78.2106 8.70481 78.0571 9.39558C77.9803 10.0864 77.7501 10.7004 77.4431 11.1609C77.1361 11.6214 76.6755 12.0052 76.215 12.2354C75.7545 12.4657 75.1405 12.6192 74.4497 12.4657ZM74.5265 11.6982C75.0637 11.7749 75.4475 11.6982 75.8313 11.5447C76.215 11.3912 76.522 11.0841 76.7523 10.7004C76.9826 10.3166 77.1361 9.8561 77.2128 9.31883C77.2896 8.78156 77.2896 8.32104 77.1361 7.86053C76.9826 7.40001 76.829 7.093 76.522 6.78599C76.215 6.47898 75.8313 6.32547 75.294 6.24872C74.7567 6.17197 74.373 6.24872 73.9892 6.40222C73.6054 6.55573 73.2984 6.86274 73.0682 7.2465C72.8379 7.63027 72.6844 8.09079 72.6076 8.62805C72.5309 9.16532 72.5309 9.62584 72.6844 10.0864C72.7611 10.5469 72.9914 10.8539 73.2984 11.1609C73.6054 11.4679 73.9892 11.6214 74.5265 11.6982Z" fill="#FFFCF3"/>
<path d="M80.5901 14.3845C79.9761 14.0775 79.5156 13.6937 79.2086 13.2332C78.9016 12.7727 78.748 12.2354 78.748 11.6214C78.748 11.0074 78.9016 10.3934 79.2086 9.77934C79.5156 9.16532 79.8993 8.62805 80.3599 8.24429C80.8204 7.86052 81.3576 7.63026 81.8949 7.63026C82.4322 7.63026 83.0462 7.70702 83.6602 8.01403C84.2742 8.32104 84.7348 8.7048 85.0418 9.16532C85.3488 9.62584 85.5023 10.1631 85.5023 10.7771C85.5023 11.3912 85.3488 12.0052 85.0418 12.6192C84.7348 13.2332 84.351 13.7705 83.8905 14.1543C83.43 14.538 82.8927 14.7683 82.3554 14.7683C81.8182 14.7683 81.2041 14.6915 80.5901 14.3845ZM80.8971 13.617C81.3576 13.8472 81.8182 13.924 82.2019 13.8472C82.5857 13.7705 82.9694 13.617 83.3532 13.31C83.6602 13.003 83.9672 12.6192 84.1975 12.1587C84.4277 11.6982 84.5813 11.1609 84.5813 10.7771C84.5813 10.3934 84.5045 9.93285 84.351 9.54908C84.1975 9.16532 83.8137 8.85831 83.3532 8.62805C82.8927 8.39779 82.4322 8.32104 82.0484 8.39779C81.6647 8.47454 81.2809 8.62805 80.8971 8.93506C80.5901 9.24207 80.2831 9.62584 80.0528 10.0864C79.8226 10.5469 79.6691 11.0074 79.6691 11.4679C79.6691 11.9284 79.7458 12.3122 79.9761 12.6959C80.1296 13.0797 80.4366 13.3867 80.8971 13.617Z" fill="#FFFCF3"/>
<path d="M83.8906 15.9963L88.726 11.0841L90.2611 12.5424C90.3379 12.6192 90.4146 12.6959 90.4914 12.7727C90.6449 12.9262 90.7216 13.003 90.7984 13.1565C91.1054 13.617 91.3356 14.0007 91.3356 14.538C91.3356 14.9985 91.2589 15.459 91.1054 15.9963C90.8751 16.4568 90.5681 16.9173 90.1843 17.3779C89.8006 17.8384 89.3401 18.1454 88.8796 18.3757C88.419 18.6059 87.9585 18.6827 87.4213 18.6827C86.9607 18.6827 86.5002 18.4524 86.0397 18.1454C85.8862 18.0686 85.8094 17.9151 85.6559 17.8384C85.5024 17.6849 85.4257 17.6081 85.4257 17.6081L83.8906 15.9963ZM85.0419 16.0731L85.9629 16.9173C86.0397 16.9941 86.1165 17.0709 86.27 17.2244C86.3467 17.3011 86.5002 17.3779 86.577 17.4546C86.884 17.6849 87.191 17.7616 87.5748 17.7616C87.9585 17.7616 88.2655 17.6849 88.5725 17.4546C88.8796 17.3011 89.1866 16.9941 89.4936 16.6871C89.8006 16.3801 90.0308 16.0731 90.1843 15.6893C90.3379 15.3823 90.4146 14.9985 90.4146 14.6915C90.4146 14.3845 90.3379 14.0007 90.1076 13.6937C90.0308 13.617 89.9541 13.4635 89.8773 13.3867C89.8006 13.31 89.6471 13.1565 89.5703 13.0797L88.6493 12.2354L85.0419 16.0731Z" fill="#FFFCF3"/>
<path d="M91.7956 29.5816C91.6421 28.8908 91.7188 28.2768 91.8723 27.7395C92.1026 27.2022 92.4096 26.7417 92.8701 26.4347C93.3306 26.0509 93.9447 25.8207 94.6354 25.6672C95.3262 25.5137 95.9402 25.5137 96.5543 25.6672C97.1683 25.8207 97.6288 26.0509 98.0126 26.5114C98.3963 26.8952 98.7033 27.4325 98.7801 28.1233C98.9336 28.8908 98.8568 29.5816 98.5498 30.1956C98.2428 30.8096 97.7823 31.2701 97.1683 31.5771L96.7845 30.7329C97.245 30.5026 97.6288 30.1956 97.8591 29.7351C98.0893 29.2745 98.0893 28.814 98.0126 28.2768C97.9358 27.7395 97.7056 27.3557 97.3985 27.0487C97.0915 26.7417 96.7078 26.5882 96.324 26.5114C95.8635 26.4347 95.403 26.4347 94.8657 26.5114C94.3284 26.5882 93.8679 26.8185 93.4842 27.0487C93.1004 27.279 92.8701 27.586 92.7166 27.9698C92.5631 28.3535 92.5631 28.814 92.6399 29.2746C92.7934 29.8118 93.0236 30.2723 93.3306 30.5793C93.6377 30.8864 94.1749 31.0399 94.6354 31.0399L94.5587 31.9609C93.8679 31.8841 93.2539 31.6539 92.7166 31.2701C92.2561 30.9631 91.9491 30.4258 91.7956 29.5816Z" fill="#FFFCF3"/>
<path d="M92.4092 37.4103L95.249 36.1055L95.4793 36.9498L92.4092 38.4081V37.4103ZM92.4859 33.2657L99.3937 33.4192L99.3169 36.1823C99.3169 36.259 99.3169 36.3358 99.3169 36.4125C99.3169 36.4893 99.3169 36.566 99.3169 36.6428C99.2402 37.0266 99.0867 37.3336 98.9332 37.5638C98.7029 37.7941 98.4726 38.0244 98.1656 38.1011C97.8586 38.2546 97.5516 38.2546 97.1678 38.2546C96.6306 38.2546 96.1701 38.1011 95.7863 37.7941C95.4025 37.4871 95.1723 37.1033 95.0955 36.566L95.0188 36.259L95.0955 34.11L92.5627 34.0332L92.4859 33.2657ZM95.8631 34.1867L95.7863 36.0288C95.7863 36.1055 95.7863 36.1823 95.7863 36.259C95.7863 36.3358 95.7863 36.4125 95.7863 36.4893C95.8631 36.7196 95.9398 36.8731 96.0166 37.0266C96.1701 37.1801 96.3236 37.2568 96.4771 37.3336C96.6306 37.4103 96.8608 37.4103 97.0143 37.4103C97.1679 37.4103 97.3981 37.4103 97.5516 37.3336C97.7051 37.2568 97.9354 37.1801 98.0121 37.0266C98.1656 36.8731 98.2424 36.7196 98.3191 36.4893C98.3191 36.4125 98.3191 36.3358 98.3959 36.259C98.3959 36.1823 98.3959 36.1055 98.3959 36.0288L98.4726 34.1867H95.8631Z" fill="#FFFCF3"/>
<path d="M92.2558 39.1757L99.0101 40.4805L98.1658 44.7786L97.3982 44.6251L98.089 41.1712L95.9399 40.7875L95.4027 43.7041L94.6351 43.5506L95.1724 40.634L92.9466 40.1735L92.2558 43.6273L91.4883 43.4738L92.2558 39.1757Z" fill="#FFFCF3"/>
<path d="M91.3348 43.8576L97.0913 48.2325L96.7075 49.3838H89.416L89.723 48.5395H96.4773L96.4005 48.7698L91.0278 44.7019L91.3348 43.8576ZM92.4861 45.4694L93.2537 45.6997L92.1024 49.0768L91.3348 48.8465L92.4861 45.4694Z" fill="#FFFCF3"/>
<path d="M88.6488 51.1491L94.175 53.6819L95.1728 51.5328L95.9403 51.8399L93.6377 56.9055L92.8702 56.5985L93.868 54.4494L88.3418 51.9166L88.6488 51.1491Z" fill="#FFFCF3"/>
<path d="M86.8828 54.6797L92.9463 57.9801L92.5625 58.7476L86.499 55.4472L86.8828 54.6797Z" fill="#FFFCF3"/>
<path d="M84.8884 58.0568L91.9497 59.8221L91.4892 60.5897L85.3489 59.0546L89.2633 64.0435L88.8028 64.8111L84.2744 59.1314L84.8884 58.0568Z" fill="#FFFCF3"/>
<path d="M82.6613 61.434L88.1108 65.6554L85.4245 69.1092L84.8104 68.6487L86.9595 65.8856L85.2709 64.5808L83.4289 66.8834L82.8149 66.4229L84.6569 64.1203L82.8149 62.7388L80.6658 65.5019L80.0518 65.0413L82.6613 61.434Z" fill="#FFFCF3"/>
<path d="M71.2256 73.7144L75.6005 79.0103L74.9097 79.5476L70.9953 74.8657L68.5392 76.938L68.002 76.324L71.2256 73.7144Z" fill="#FFFCF3"/>
<path d="M67.5423 76.7845L71.687 82.3107L68.1564 84.9203L67.6958 84.3063L70.5357 82.234L69.2309 80.5454L66.8516 82.3107L66.3911 81.6967L68.7704 79.9314L67.3888 78.0893L64.4722 80.0081L64.0117 79.3941L67.5423 76.7845Z" fill="#FFFCF3"/>
<path d="M61.6326 81.0059L65.0097 86.0716L67.0053 84.7668L67.4658 85.4576L62.8606 88.5277L62.4001 87.8369L64.3957 86.5321L61.0186 81.4664L61.6326 81.0059Z" fill="#FFFCF3"/>
<path d="M61.0957 87.4531L62.0167 88.9115L61.2492 89.372L60.3281 87.9137L61.0957 87.4531Z" fill="#FFFCF3"/>
<path d="M54.8776 84.69C55.3381 84.5365 55.7986 84.4598 56.1824 84.5365C56.6429 84.5365 56.9499 84.69 57.3337 84.9203C57.6407 85.1506 57.9477 85.4576 58.1779 85.8413L57.4104 86.2251C57.1802 85.8413 56.8731 85.6111 56.4126 85.4576C56.0289 85.3041 55.5684 85.3808 55.1078 85.4576C54.8008 85.5343 54.5706 85.6878 54.3403 85.8413C54.1101 85.9948 53.9565 86.2251 53.8798 86.4554C53.803 86.6856 53.803 86.9159 53.8798 87.1461C53.9565 87.2996 53.9565 87.3764 54.11 87.5299C54.2636 87.6834 54.2636 87.6834 54.4171 87.7602C54.4938 87.8369 54.6473 87.8369 54.8008 87.8369C54.9543 87.8369 55.0311 87.8369 55.1846 87.8369L57.0267 87.7602C57.2569 87.7602 57.4104 87.7602 57.6407 87.7602C57.8709 87.7602 58.0244 87.8369 58.1779 87.9137C58.3315 87.9904 58.485 88.1439 58.6385 88.2974C58.792 88.4509 58.8687 88.6812 58.9455 88.9114C59.099 89.2952 59.099 89.679 58.9455 89.986C58.8687 90.293 58.6385 90.6 58.3315 90.907C58.0244 91.214 57.6407 91.3675 57.2569 91.521C56.7964 91.6745 56.4126 91.6745 56.0289 91.6745C55.6451 91.5978 55.2613 91.521 54.9543 91.2908C54.6473 91.0605 54.3403 90.7535 54.1868 90.4465L55.0311 89.986C55.1846 90.2162 55.3381 90.4465 55.5684 90.6C55.7986 90.7535 56.0289 90.8303 56.3359 90.8303C56.6429 90.8303 56.8731 90.8303 57.1802 90.7535C57.4872 90.6768 57.7174 90.5233 57.8709 90.3698C58.0244 90.2162 58.1779 90.0627 58.2547 89.8325C58.3315 89.6022 58.3315 89.4487 58.2547 89.2185C58.1779 88.9882 58.1012 88.9115 57.9477 88.7579C57.7942 88.6812 57.6407 88.6044 57.4104 88.6044C57.2569 88.6044 57.0267 88.6044 56.8731 88.6044L55.4916 88.6812C55.3381 88.6812 55.1846 88.6812 54.9543 88.6812C54.7241 88.6812 54.4938 88.6044 54.3403 88.5277C54.1101 88.4509 53.9565 88.3742 53.7263 88.1439C53.5728 87.9904 53.4193 87.7602 53.2658 87.3764C53.189 87.0694 53.1123 86.7624 53.189 86.4554C53.2658 86.1484 53.3425 85.9181 53.496 85.6878C53.6495 85.4576 53.8798 85.2273 54.1868 85.0738C54.2636 84.9203 54.5706 84.7668 54.8776 84.69Z" fill="#FFFCF3"/>
<path d="M44.8238 82.6177L40.9862 88.2974L40.3721 87.8369L41.2932 81.8502L36.074 84.9203L35.46 84.4598L39.2976 78.7801L39.9116 79.2406L37.0718 83.3853L41.8304 80.5454L42.2142 80.7757L41.3699 86.2251L44.2098 82.0805L44.8238 82.6177Z" fill="#FFFCF3"/>
<path d="M38.6046 78.3196L32.5412 82.3107L31.6201 81.5432L34.0762 74.7122L34.767 75.2495L32.5412 81.6199L32.3109 81.4664L37.9138 77.7823L38.6046 78.3196ZM36.7626 78.9336L36.302 79.5476L33.4622 77.3218L33.9227 76.7078L36.7626 78.9336Z" fill="#FFFCF3"/>
<path d="M33.4631 74.2517L28.858 79.3941L28.2439 78.8568L30.393 76.4775L25.9414 76.8613L25.1738 76.1705L29.779 75.7867L29.6255 70.8745L30.4698 71.6421L30.6233 76.324L32.8491 73.7912L33.4631 74.2517Z" fill="#FFFCF3"/>
<path d="M29.2421 70.3373L24.3299 75.096L21.2598 71.9491L21.8738 71.4118L24.3299 73.9447L25.8649 72.4096L23.7926 70.2605L24.4066 69.7233L26.479 71.8723L28.1675 70.2605L25.7114 67.7277L26.3254 67.1904L29.2421 70.3373Z" fill="#FFFCF3"/>
<path d="M18.5742 56.8288C18.8045 57.2126 18.958 57.6731 19.0347 58.0568C19.1115 58.4406 19.0347 58.9011 18.958 59.2849C18.8045 59.6686 18.5742 59.9757 18.2672 60.2827L17.6532 59.5919C17.9602 59.2849 18.1137 58.9011 18.1904 58.4406C18.2672 57.9801 18.1137 57.5963 17.8834 57.2126C17.7299 56.9823 17.4997 56.752 17.3462 56.5985C17.1159 56.445 16.8856 56.3683 16.6554 56.2915C16.4251 56.2915 16.1949 56.2915 15.9646 56.445C15.8111 56.5218 15.7344 56.5985 15.6576 56.752C15.5808 56.8288 15.5808 56.9823 15.5041 57.059C15.4273 57.1358 15.5041 57.2893 15.5041 57.4428C15.5041 57.5963 15.5041 57.6731 15.5808 57.8266L16.0414 59.5919C16.1181 59.8221 16.1181 59.9756 16.1181 60.2059C16.1181 60.4362 16.1181 60.5897 16.1181 60.8199C16.0414 60.9734 15.9646 61.2037 15.8879 61.3572C15.7344 61.5107 15.5808 61.6642 15.3506 61.8177C14.9668 62.048 14.6598 62.1247 14.2761 62.048C13.8923 61.9712 13.5853 61.8945 13.2783 61.6642C12.9713 61.434 12.6642 61.1269 12.434 60.7432C12.2037 60.3594 12.0502 59.9757 11.9735 59.5151C11.8967 59.1314 11.9735 58.7476 12.127 58.3638C12.2805 57.9801 12.5107 57.6731 12.8178 57.3661L13.4318 58.0568C13.2015 58.2103 13.048 58.4406 12.9713 58.6709C12.8945 58.9011 12.8945 59.2081 12.8945 59.4384C12.8945 59.6686 13.048 59.9756 13.2015 60.2059C13.355 60.4362 13.5085 60.6664 13.7388 60.8199C13.969 60.9734 14.1225 61.0502 14.3528 61.0502C14.5831 61.0502 14.7366 61.0502 14.9668 60.8967C15.1203 60.8199 15.2738 60.6664 15.2738 60.5129C15.2738 60.3594 15.3506 60.1292 15.2738 59.9757C15.2738 59.8221 15.1971 59.5919 15.1971 59.4384L14.8133 58.1336C14.7366 57.9801 14.7366 57.8266 14.6598 57.5963C14.5831 57.3661 14.5831 57.1358 14.6598 56.9823C14.6598 56.752 14.7366 56.5218 14.8901 56.2915C15.0436 56.0613 15.1971 55.9078 15.5041 55.6775C15.8111 55.524 16.0414 55.4472 16.3484 55.3705C16.6554 55.3705 16.8856 55.3705 17.1927 55.524C17.4997 55.6775 17.7299 55.831 17.9602 56.0613C18.1904 56.2915 18.4207 56.5218 18.5742 56.8288Z" fill="#FFFCF3"/>
<path d="M15.6575 51.3026C15.9645 51.9166 16.0413 52.5306 15.9645 53.0679C15.8878 53.6052 15.6575 54.1425 15.2737 54.603C14.89 55.0635 14.3527 55.4472 13.7387 55.7543C13.1247 56.0613 12.5106 56.2148 11.8966 56.2148C11.2826 56.2148 10.7453 56.0613 10.2848 55.7543C9.8243 55.4472 9.44053 54.9867 9.13352 54.3727C8.82651 53.7587 8.74976 53.1447 8.82651 52.6074C8.90326 52.0701 9.13352 51.5329 9.51729 51.0723C9.90105 50.6118 10.4383 50.2281 11.0523 49.9211C11.6664 49.614 12.2804 49.4605 12.8944 49.4605C13.5084 49.4605 14.0457 49.614 14.5062 49.9211C15.0435 50.2281 15.4272 50.6886 15.6575 51.3026ZM14.9667 51.6864C14.7365 51.2258 14.5062 50.8421 14.1225 50.6886C13.7387 50.5351 13.3549 50.3816 12.8944 50.3816C12.4339 50.3816 11.9734 50.5351 11.4361 50.7653C10.8988 50.9956 10.5151 51.3026 10.2081 51.6096C9.90105 51.9166 9.74754 52.3004 9.67079 52.6841C9.59404 53.0679 9.67079 53.5284 9.90105 53.9889C10.1313 54.4495 10.3616 54.8332 10.7453 54.9867C11.1291 55.217 11.5129 55.2937 11.9734 55.2937C12.4339 55.2937 12.8944 55.1402 13.4317 54.91C13.9689 54.6797 14.3527 54.3727 14.6597 54.0657C14.9667 53.7587 15.1202 53.3749 15.197 52.9912C15.2737 52.6074 15.197 52.1469 14.9667 51.6864Z" fill="#FFFCF3"/>
<path d="M13.9688 47.772L7.36804 49.614L7.13778 48.8465L11.6662 44.8554L5.67948 43.8576L5.44922 43.0901L12.05 41.248L12.2802 42.0155L7.44479 43.3971L12.8942 44.3181L13.0477 44.7786L8.82634 48.386L13.6618 47.0044L13.9688 47.772Z" fill="#FFFCF3"/>
<path d="M11.9732 40.1734L5.14216 40.8642L4.68164 36.4893L5.44917 36.4126L5.83293 39.9432L7.98201 39.7129L7.675 36.7963L8.44253 36.7196L8.74954 39.6362L11.0521 39.4059L10.7451 35.8753L11.5126 35.7985L11.9732 40.1734Z" fill="#FFFCF3"/>
<path d="M11.6661 33.1889L5.60267 32.8052L5.44917 35.1845L4.68164 35.1078L5.0654 29.5048L5.83293 29.5816L5.67943 31.9609L11.7429 32.3447L11.6661 33.1889Z" fill="#FFFCF3"/>
<path d="M11.8966 29.5048L5.2959 27.6627L5.52616 26.8185L8.44276 27.6627L9.44055 24.1321L6.52394 23.2878L6.7542 22.4436L13.3549 24.2856L13.1247 25.1299L10.2081 24.2856L9.21029 27.893L12.1269 28.7373L11.8966 29.5048Z" fill="#FFFCF3"/>
<path d="M13.9689 23.3646L7.75195 20.3712L8.13572 19.6037L14.3527 22.597L13.9689 23.3646Z" fill="#FFFCF3"/>
<path d="M14.7352 21.5225L9.20898 17.3779L9.74625 16.6871L16.1935 17.0708L11.8953 13.8472L12.4326 13.1565L17.882 17.3011L17.3448 17.9919L10.8975 17.6081L15.1957 20.8317L14.7352 21.5225Z" fill="#FFFCF3"/>
<path d="M20.9536 15.2288C20.5699 15.459 20.1861 15.6893 19.7256 15.7661C19.3418 15.8428 18.8813 15.8428 18.4975 15.6893C18.1138 15.5358 17.73 15.3823 17.3463 15.0753C16.9625 14.7683 16.6555 14.3845 16.3485 13.924C15.9647 13.31 15.7344 12.6959 15.6577 12.0819C15.5809 11.4679 15.6577 10.9306 15.8879 10.4701C16.1182 10.0096 16.502 9.54909 17.0392 9.16532C17.6533 8.70481 18.344 8.5513 18.8813 8.5513C19.4953 8.62805 20.0326 8.85831 20.4931 9.24208L19.8791 9.8561C19.4953 9.54909 19.1116 9.47233 18.7278 9.39558C18.344 9.39558 17.8835 9.47233 17.4998 9.77934C17.0392 10.0864 16.7322 10.3934 16.5787 10.7771C16.4252 11.1609 16.3485 11.5447 16.502 12.0052C16.5787 12.4657 16.809 12.9262 17.0392 13.3867C17.3463 13.8472 17.6533 14.231 18.037 14.4613C18.4208 14.6915 18.8046 14.845 19.1883 14.845C19.5721 14.845 20.0326 14.6915 20.4931 14.4613C20.8769 14.231 21.1071 13.924 21.2606 13.617C21.4141 13.31 21.4909 13.003 21.4141 12.6192C21.3374 12.2354 21.2606 11.8517 21.0304 11.4679L19.8023 12.3122L19.4186 11.6982L21.4141 10.3934C21.4909 10.4701 21.4909 10.4701 21.5677 10.5469C21.6444 10.6236 21.6444 10.7004 21.6444 10.7004C21.9514 11.2376 22.1817 11.7749 22.2584 12.3122C22.3352 12.8495 22.2584 13.3867 22.0282 13.8472C21.7979 14.3078 21.4909 14.845 20.9536 15.2288Z" fill="#FFFCF3"/>
<path d="M35.5363 12.5424C35.0758 12.4657 34.6153 12.3122 34.3083 12.0819C34.0012 11.8517 33.6175 11.5447 33.3872 11.2376C33.157 10.8539 33.0035 10.4701 32.9267 10.0096C32.85 9.54908 32.85 9.01181 32.9267 8.47454C33.0035 7.78377 33.2337 7.16975 33.6175 6.63248C34.0012 6.09521 34.385 5.7882 34.9223 5.55794C35.4595 5.32768 35.9968 5.25093 36.6876 5.32768C37.4551 5.40443 38.0691 5.71144 38.4529 6.09521C38.8367 6.47897 39.1437 7.01624 39.2204 7.70701L38.3762 7.78377C38.2994 7.32325 38.0691 7.01624 37.8389 6.70923C37.3016 6.55572 36.9178 6.32547 36.4573 6.32547C35.9201 6.24871 35.5363 6.32546 35.1525 6.47897C34.7688 6.63248 34.4618 6.93949 34.2315 7.32325C34.0012 7.70701 33.8477 8.16753 33.771 8.7048C33.6942 9.24207 33.6942 9.70259 33.8477 10.1631C33.9245 10.6236 34.1547 10.9306 34.4618 11.2376C34.7688 11.5447 35.1525 11.6982 35.6898 11.7749C36.1503 11.8517 36.5341 11.7749 36.8411 11.6982C37.1481 11.6214 37.4551 11.3911 37.6086 11.0841C37.8389 10.7771 37.9924 10.3934 38.0691 9.93284L36.6108 9.70259L36.6876 9.01181L39.0669 9.31882C39.0669 9.39558 39.0669 9.47233 39.0669 9.54908C39.0669 9.62583 39.0669 9.70259 39.0669 9.70259C38.9902 10.3166 38.7599 10.8539 38.4529 11.3144C38.1459 11.7749 37.7621 12.0819 37.2249 12.3122C36.7643 12.6192 36.1503 12.6959 35.5363 12.5424Z" fill="#FFFCF3"/>
<path d="M41.8306 14.1543C41.2165 13.924 40.6793 13.5402 40.3723 13.0797C40.0653 12.6192 39.835 12.0819 39.7582 11.5447C39.6815 10.9306 39.835 10.3166 40.0653 9.62584C40.2955 8.93507 40.6793 8.3978 41.063 8.01403C41.5236 7.63027 41.9841 7.32326 42.5213 7.2465C43.0586 7.16975 43.6726 7.16975 44.2867 7.40001C44.9007 7.63027 45.438 8.01403 45.745 8.47455C46.052 8.93506 46.2822 9.47233 46.359 10.0096C46.4357 10.6236 46.2822 11.2376 46.052 11.9284C45.8217 12.6192 45.438 13.1565 45.0542 13.5402C44.6704 13.924 44.1332 14.231 43.5959 14.3078C43.0586 14.4613 42.4446 14.3845 41.8306 14.1543ZM42.1376 13.3867C42.5981 13.5402 43.0586 13.617 43.4424 13.5402C43.8261 13.4635 44.2099 13.2332 44.5169 12.9262C44.8239 12.6192 45.0542 12.1587 45.2844 11.6982C45.5147 11.1609 45.5915 10.7004 45.5147 10.2399C45.5147 9.77935 45.3612 9.39558 45.1309 9.08857C44.9007 8.78156 44.5169 8.47455 44.0564 8.32104C43.5959 8.16754 43.1354 8.09078 42.7516 8.16754C42.3678 8.24429 41.9841 8.47455 41.6771 8.78156C41.3701 9.08857 41.1398 9.54909 40.9095 10.0864C40.6793 10.6236 40.6025 11.0841 40.6793 11.5447C40.6793 12.0052 40.8328 12.3889 41.063 12.696C41.2933 13.003 41.6003 13.2332 42.1376 13.3867Z" fill="#FFFCF3"/>
<path d="M47.5098 17.2244C46.9726 16.8406 46.5888 16.3033 46.3585 15.7661C46.1283 15.2288 46.1283 14.6915 46.2818 14.0775C46.4353 13.4635 46.6656 12.9262 47.1261 12.3889C47.5866 11.8517 48.0471 11.3912 48.5844 11.1609C49.1216 10.9306 49.6589 10.7771 50.1962 10.8539C50.7335 10.9306 51.3475 11.1609 51.8847 11.5447C52.422 12.0052 52.8058 12.4657 53.036 13.003C53.2663 13.5402 53.2663 14.0775 53.1128 14.6915C52.9593 15.3055 52.729 15.8428 52.2685 16.3801C51.808 16.9174 51.3475 17.3779 50.8102 17.6081C50.2729 17.9151 49.7357 17.9919 49.1984 17.9151C48.5844 17.9151 48.0471 17.6849 47.5098 17.2244ZM47.9703 16.6103C48.3541 16.9173 48.8146 17.0709 49.1984 17.1476C49.5822 17.2244 50.0427 17.0709 50.4264 16.8406C50.8102 16.6103 51.194 16.3033 51.501 15.8428C51.808 15.3823 52.0382 14.9985 52.1918 14.538C52.3453 14.0775 52.2685 13.6937 52.1918 13.31C52.0382 12.9262 51.808 12.5424 51.3475 12.2354C50.9637 11.9284 50.5032 11.7749 50.1194 11.6982C49.7357 11.6982 49.2751 11.7749 48.8914 12.0052C48.5076 12.2354 48.1239 12.5424 47.8168 13.003C47.5098 13.4635 47.2796 13.8472 47.1261 14.3078C46.9726 14.7683 47.0493 15.152 47.1261 15.5358C47.2028 15.9196 47.5866 16.3033 47.9703 16.6103Z" fill="#FFFCF3"/>
<path d="M50.3496 19.4502L56.2596 15.9196L57.3341 17.7616C57.3341 17.8384 57.4109 17.9151 57.4876 18.0686C57.5644 18.2221 57.6411 18.3757 57.7179 18.5292C57.9481 18.9897 58.0249 19.5269 57.9481 19.9875C57.8714 20.448 57.6411 20.9085 57.3341 21.2923C57.0271 21.676 56.5666 22.0598 56.1061 22.3668C55.5688 22.6738 55.1083 22.9041 54.571 22.9808C54.0337 23.0576 53.5732 23.0576 53.1127 22.9041C52.6522 22.7506 52.2684 22.4435 51.8847 22.0598C51.8079 21.9063 51.6544 21.8295 51.5777 21.676C51.5009 21.5225 51.4242 21.4458 51.3474 21.369L50.3496 19.4502ZM51.5009 19.834L52.1917 20.9085C52.2684 20.9852 52.3452 21.1388 52.4219 21.2155C52.4987 21.369 52.5754 21.4458 52.6522 21.5225C52.8825 21.8295 53.1895 21.983 53.4965 22.0598C53.8035 22.1365 54.1872 22.1365 54.571 22.0598C54.9548 21.983 55.3385 21.8295 55.6456 21.5993C56.0293 21.369 56.3363 21.1388 56.5666 20.8317C56.7968 20.5247 57.0271 20.2177 57.1039 19.9107C57.1806 19.6037 57.1806 19.2199 57.0271 18.9129C56.9504 18.8362 56.9503 18.6827 56.8736 18.5292C56.7968 18.3757 56.7201 18.2989 56.6433 18.1454L56.0293 17.0709L51.5009 19.834Z" fill="#FFFCF3"/>
<path d="M54.4174 31.9609L61.2484 32.4214L61.1716 33.2657L55.1081 32.8819L54.8779 36.1056L54.1104 36.0288L54.4174 31.9609Z" fill="#FFFCF3"/>
<path d="M52.7286 36.6428C53.3426 36.3358 53.9566 36.1823 54.4939 36.1823C55.0312 36.2591 55.5685 36.4126 56.029 36.7963C56.4895 37.1801 56.8732 37.6406 57.257 38.2546C57.564 38.8687 57.7943 39.4827 57.7943 40.0967C57.7943 40.7107 57.7175 41.248 57.4105 41.7085C57.1035 42.169 56.7197 42.6295 56.1057 42.9366C55.4917 43.2436 54.8777 43.3971 54.3404 43.3971C53.8031 43.3203 53.2659 43.1668 52.8054 42.783C52.3448 42.3993 51.9611 41.9388 51.5773 41.3247C51.2703 40.7107 51.04 40.0967 51.04 39.4827C51.04 38.8687 51.1168 38.3314 51.4238 37.8709C51.6541 37.4104 52.1146 37.0266 52.7286 36.6428ZM53.1124 37.4104C52.6518 37.6406 52.3448 37.9476 52.1146 38.3314C51.8843 38.7152 51.8843 39.0989 51.8843 39.5594C51.9611 40.0199 52.1146 40.4805 52.3448 40.941C52.5751 41.4015 52.8821 41.7853 53.2659 42.0923C53.6496 42.3993 53.9566 42.5528 54.4172 42.5528C54.8777 42.5528 55.2614 42.476 55.722 42.2458C56.1825 42.0155 56.4895 41.7085 56.7197 41.3247C56.8732 40.941 56.95 40.5572 56.95 40.0967C56.95 39.6362 56.7197 39.1757 56.4895 38.7152C56.2592 38.2546 55.9522 37.8709 55.5685 37.5639C55.1847 37.2569 54.8009 37.1033 54.4172 37.1033C53.9566 37.0266 53.5729 37.1801 53.1124 37.4104Z" fill="#FFFCF3"/>
<path d="M50.0423 35.4148L44.1323 39.6362L43.9021 38.7919L49.0445 35.1845L42.7508 34.9542L42.5205 34.11L49.812 34.3402L50.0423 35.4148Z" fill="#FFFCF3"/>
<path d="M49.5048 31.9609L42.6738 31.2701L43.1343 26.8952L43.9019 26.972L43.5181 30.5026L45.6672 30.7328L45.9742 27.8162L46.7417 27.893L46.4347 30.8096L48.7373 31.0399L49.1211 27.5092L49.8886 27.586L49.5048 31.9609Z" fill="#FFFCF3"/>
</g>
<defs>
<clipPath id="clip0_600_2149">
<rect width="104" height="98.7041" fill="white" transform="translate(0 0.185226)"/>
</clipPath>
</defs>
</svg>
