<svg width="80" height="80" viewBox="0 0 80 80" fill="none" xmlns="http://www.w3.org/2000/svg">
<g clip-path="url(#clip0_598_2143)">
<path d="M37.4066 4.45969C38.5634 2.47048 41.4366 2.47049 42.5934 4.45969L54.3088 24.6059C54.5703 25.0557 54.9443 25.4297 55.3941 25.6912L75.5403 37.4066C77.5295 38.5634 77.5295 41.4366 75.5403 42.5934L55.3941 54.3088C54.9443 54.5703 54.5703 54.9443 54.3088 55.3941L42.5934 75.5403C41.4366 77.5295 38.5634 77.5295 37.4066 75.5403L25.6912 55.3941C25.4297 54.9443 25.0557 54.5703 24.6059 54.3088L4.45969 42.5934C2.47048 41.4366 2.47049 38.5634 4.45969 37.4066L24.6059 25.6912C25.0557 25.4297 25.4297 25.0557 25.6912 24.6059L37.4066 4.45969Z" fill="#8C7AFF"/>
</g>
<defs>
<clipPath id="clip0_598_2143">
<rect width="80" height="80" fill="white"/>
</clipPath>
</defs>
</svg>
