<svg width="111" height="104" viewBox="0 0 111 104" fill="none" xmlns="http://www.w3.org/2000/svg">
<g clip-path="url(#clip0_638_2145)">
<path d="M74.9789 103.951C94.5712 103.951 110.454 80.7758 110.454 52.1879C110.454 23.5999 94.5712 0.424805 74.9789 0.424805C55.3866 0.424805 39.5039 23.5999 39.5039 52.1879C39.5039 80.7758 55.3866 103.951 74.9789 103.951Z" fill="#FF9CDD"/>
<path d="M75.8108 95.7514C90.7604 95.7514 102.879 76.2287 102.879 52.1462C102.879 28.0637 90.7604 8.54102 75.8108 8.54102C60.8612 8.54102 48.7422 28.0637 48.7422 52.1462C48.7422 76.2287 60.8612 95.7514 75.8108 95.7514Z" fill="white" stroke="#0C0D0D" stroke-width="2.52503" stroke-miterlimit="10"/>
<path d="M85.9007 24.1392C79.0541 24.1392 73.1739 30.6544 70.3994 40.0684L85.9007 52.1464L70.3027 63.9208C73.0358 73.5004 78.9851 80.1537 85.9007 80.1537C95.3975 80.1537 103.114 67.6201 103.114 52.1464C103.114 36.6727 95.3975 24.1392 85.9007 24.1392Z" fill="black"/>
<path d="M34.8534 103.951C53.851 103.951 69.2517 80.7758 69.2517 52.1879C69.2517 23.5999 53.851 0.424805 34.8534 0.424805C15.8557 0.424805 0.455078 23.5999 0.455078 52.1879C0.455078 80.7758 15.8557 103.951 34.8534 103.951Z" fill="#FF9CDD"/>
<path d="M34.8811 95.751C49.8307 95.751 61.9498 76.2282 61.9498 52.1457C61.9498 28.0632 49.8307 8.54053 34.8811 8.54053C19.9315 8.54053 7.8125 28.0632 7.8125 52.1457C7.8125 76.2282 19.9315 95.751 34.8811 95.751Z" fill="white" stroke="#0C0D0D" stroke-width="2.52503" stroke-miterlimit="10"/>
<path d="M44.9729 24.1392C38.1264 24.1392 32.2461 30.6544 29.4716 40.0684L44.9729 52.1464L29.375 63.9208C32.1081 73.5004 38.0574 80.1537 44.9729 80.1537C54.4697 80.1537 62.1859 67.6201 62.1859 52.1464C62.1859 36.6727 54.4697 24.1392 44.9729 24.1392Z" fill="black"/>
</g>
<defs>
<clipPath id="clip0_638_2145">
<rect width="110" height="103.526" fill="white" transform="translate(0.455078 0.424805)"/>
</clipPath>
</defs>
</svg>
