<svg width="91" height="91" viewBox="0 0 91 91" fill="none" xmlns="http://www.w3.org/2000/svg">
<path d="M74.7546 24.5016C71.1156 24.5016 66.2076 26.169 61.7401 28.9691C64.5402 24.512 66.2076 19.6041 66.2076 15.9546C66.2181 7.34473 58.0906 0.360352 45.3593 0.360352C33.0266 0.360352 24.5006 7.34473 24.5006 15.9546C24.5006 19.5936 26.168 24.5016 28.9681 28.9691C24.5111 26.169 19.5926 24.5016 15.9536 24.5016C7.34374 24.5016 0.359357 32.6185 0.35935 45.3603C0.359343 57.6826 7.34372 66.2191 15.9536 66.2191C19.5926 66.2191 24.5006 64.5516 28.968 61.7516C26.168 66.2086 24.5005 71.1165 24.5005 74.766C24.5005 83.3759 32.628 90.3603 45.3593 90.3603C57.6921 90.3603 66.2181 83.3759 66.2181 74.766C66.2181 71.127 64.5506 66.2191 61.7506 61.7516C66.2076 64.5516 71.126 66.2191 74.765 66.2191C83.3749 66.2191 90.3593 58.0916 90.3593 45.3603C90.3488 33.0275 83.3749 24.5016 74.7546 24.5016Z" fill="#2ED06E"/>
</svg>
