<svg width="120" height="120" viewBox="0 0 120 120" fill="none" xmlns="http://www.w3.org/2000/svg">
<path d="M73.0894 73.55C89.7081 76.051 120 78.0913 120 59.6462C120 41.1682 89.5929 44.0642 72.9907 47.0095C75.936 30.4072 78.8319 -1.79951e-06 60.354 -2.60721e-06C41.9254 -3.41275e-06 43.9493 30.2921 46.4503 46.9107C29.733 43.9984 0.000459297 41.3821 0.000458499 59.6462C0.000457702 77.8774 29.6342 76.0839 46.368 73.6322C43.8999 90.3661 42.1229 120 60.354 120C78.618 120 76.0018 90.2674 73.0894 73.55ZM58.3301 29.9959C58.3301 24.0724 59.087 19.2842 60.0085 19.2842C60.9299 19.2842 61.6868 24.0888 61.6868 29.9959C61.6868 35.9194 60.9299 40.7075 60.0085 40.7075C59.0706 40.7075 58.3301 35.9194 58.3301 29.9959ZM19.2846 60.0082C19.2846 59.0868 24.0892 58.3299 29.9962 58.3299C35.9197 58.3299 40.7078 59.0868 40.7078 60.0082C40.7078 60.9297 35.9032 61.6865 29.9962 61.6865C24.0892 61.6701 19.2846 60.9297 19.2846 60.0082ZM79.2926 60.0082C79.2926 59.0868 84.0972 58.3299 90.0042 58.3299C95.9112 58.3299 100.716 59.0868 100.716 60.0082C100.716 60.9297 95.9112 61.6866 90.0042 61.6865C84.0972 61.6865 79.2926 60.9297 79.2926 60.0082ZM58.3301 90.0041C58.3301 84.0806 59.087 79.2925 60.0085 79.2925C60.9299 79.2925 61.6868 84.0971 61.6868 90.0041C61.6868 95.9111 60.9299 100.716 60.0085 100.716C59.0706 100.716 58.3301 95.9111 58.3301 90.0041Z" fill="#2ED06E"/>
</svg>
