<svg width="1920" height="480" viewBox="0 0 1920 480" fill="none" xmlns="http://www.w3.org/2000/svg">
<g clip-path="url(#clip0_529_3558)">
<rect x="460" y="397" width="376" height="82" rx="41" fill="white"/>
<path d="M504.254 456V421.44H507.782V456H504.254ZM514.497 430.08V421.44H518.025V430.08H514.497ZM525.243 456V421.44H528.483L542.067 450.504L555.579 421.44H558.867V455.976H555.507V429.312L543.195 456H540.915L528.627 429.312V456H525.243ZM575.212 456V421.44H578.764L597.796 449.76V421.44H601.348V456H597.796L578.764 427.656V456H575.212ZM622.063 456.72C618.623 456.72 615.719 455.96 613.351 454.44C610.983 452.904 609.191 450.784 607.975 448.08C606.759 445.376 606.151 442.256 606.151 438.72C606.151 435.184 606.759 432.064 607.975 429.36C609.191 426.656 610.983 424.544 613.351 423.024C615.719 421.488 618.623 420.72 622.063 420.72C625.519 420.72 628.423 421.488 630.775 423.024C633.143 424.544 634.935 426.656 636.151 429.36C637.383 432.064 637.999 435.184 637.999 438.72C637.999 442.256 637.383 445.376 636.151 448.08C634.935 450.784 633.143 452.904 630.775 454.44C628.423 455.96 625.519 456.72 622.063 456.72ZM622.063 453.336C624.767 453.336 627.023 452.72 628.831 451.488C630.639 450.256 631.991 448.544 632.887 446.352C633.799 444.144 634.255 441.6 634.255 438.72C634.255 435.84 633.799 433.304 632.887 431.112C631.991 428.92 630.639 427.208 628.831 425.976C627.023 424.744 624.767 424.12 622.063 424.104C619.359 424.104 617.111 424.72 615.319 425.952C613.527 427.184 612.175 428.904 611.263 431.112C610.367 433.304 609.911 435.84 609.895 438.72C609.879 441.6 610.319 444.136 611.215 446.328C612.127 448.504 613.487 450.216 615.295 451.464C617.103 452.696 619.359 453.32 622.063 453.336ZM651.06 456V424.824H638.988V421.44H666.66V424.824H654.588V456H651.06ZM679.145 456V421.44H682.673V452.616H699.089V456H679.145ZM700.78 456L712.684 421.44H717.364L729.268 456H725.596L714.292 423.408H715.684L704.452 456H700.78ZM706.084 447.624V444.312H723.94V447.624H706.084ZM739.935 456V424.824H727.863V421.44H755.535V424.824H743.463V456H739.935ZM759.383 456V421.44H780.983V424.824H762.911V436.776H778.103V440.16H762.911V452.616H780.983V456H759.383ZM787.43 456V451.896H791.534V456H787.43Z" fill="black"/>
<rect x="354.18" y="237" width="218" height="82" rx="41" transform="rotate(25.4053 354.18 237)" fill="#2ED06E"/>
<path d="M374.966 312.189L380.774 276.688L384.091 278.263L379.154 307.509L398.649 285.204L401.998 286.768L397.061 316.014L416.566 293.687L419.905 295.273L396.081 322.218L392.873 320.694L397.662 291.59L378.174 313.713L374.966 312.189ZM420.314 334.524C417.206 333.048 414.909 331.116 413.422 328.727C411.942 326.324 411.233 323.64 411.295 320.676C411.356 317.711 412.146 314.632 413.663 311.438C415.18 308.244 417.068 305.687 419.326 303.766C421.584 301.845 424.109 300.706 426.9 300.349C429.698 299.977 432.651 300.53 435.758 302.005C438.88 303.488 441.174 305.428 442.639 307.824C444.126 310.213 444.839 312.89 444.777 315.854C444.73 318.825 443.948 321.908 442.431 325.102C440.914 328.296 439.019 330.85 436.746 332.764C434.488 334.684 431.959 335.831 429.161 336.202C426.385 336.566 423.435 336.007 420.314 334.524ZM421.765 331.467C424.208 332.627 426.51 333.039 428.672 332.702C430.833 332.364 432.789 331.398 434.539 329.802C436.31 328.199 437.813 326.097 439.049 323.495C440.285 320.894 440.961 318.407 441.077 316.036C441.208 313.672 440.722 311.545 439.617 309.657C438.512 307.768 436.742 306.237 434.307 305.062C431.864 303.902 429.569 303.494 427.422 303.838C425.275 304.182 423.315 305.156 421.544 306.759C419.795 308.355 418.295 310.45 417.045 313.044C415.795 315.639 415.104 318.119 414.973 320.483C414.863 322.84 415.357 324.97 416.455 326.873C417.56 328.761 419.33 330.293 421.765 331.467ZM439.359 342.773L454.186 311.555L466.24 317.279C466.543 317.424 466.876 317.599 467.238 317.807C467.621 318.007 467.991 318.235 468.347 318.493C469.863 319.514 470.972 320.741 471.674 322.172C472.397 323.596 472.728 325.117 472.668 326.736C472.622 328.362 472.212 329.991 471.436 331.624C470.317 333.98 468.724 335.73 466.658 336.874C464.591 338.018 462.295 338.265 459.77 337.614L458.541 337.349L448.178 332.428L442.546 344.286L439.359 342.773ZM458.263 351.751L458.14 336.123L461.753 336.404L461.927 353.491L458.263 351.751ZM449.62 329.393L458.4 333.563C458.66 333.686 458.97 333.816 459.331 333.952C459.691 334.088 460.055 334.198 460.422 334.284C461.601 334.561 462.685 334.535 463.673 334.207C464.676 333.886 465.556 333.357 466.314 332.619C467.086 331.887 467.703 331.038 468.162 330.069C468.622 329.101 468.892 328.086 468.97 327.026C469.07 325.957 468.928 324.933 468.543 323.953C468.173 322.98 467.508 322.124 466.548 321.385C466.25 321.155 465.931 320.95 465.591 320.771C465.258 320.577 464.961 320.419 464.701 320.295L455.921 316.125L449.62 329.393ZM466.712 355.764L481.539 324.546L484.726 326.059L477.724 340.801L498.969 332.824L503.045 334.76L481.342 342.918L489.41 366.544L485.248 364.567L477.312 341.668L469.899 357.277L466.712 355.764Z" fill="white"/>
<path d="M693.901 251.349L725.879 233.643L729.356 236.776L715.065 270.419L712.337 267.961L725.756 236.181L726.79 237.113L696.629 253.807L693.901 251.349ZM703.448 248.677L705.665 246.217L718.931 258.169L716.714 260.63L703.448 248.677ZM722.989 277.559L743.858 254.398L734.89 246.317L737.155 243.803L757.713 262.327L755.448 264.841L746.479 256.76L725.61 279.921L722.989 277.559ZM753.409 305.939C750.854 303.636 749.205 301.128 748.463 298.413C747.732 295.687 747.82 292.913 748.727 290.09C749.634 287.267 751.271 284.542 753.638 281.915C756.005 279.288 758.545 277.378 761.258 276.183C763.972 274.988 766.717 274.618 769.493 275.074C772.281 275.518 774.952 276.892 777.508 279.195C780.491 281.883 782.237 284.845 782.746 288.082C783.265 291.306 782.718 294.518 781.106 297.717L777.805 296.003C779.09 293.477 779.56 290.983 779.217 288.52C778.873 286.057 777.549 283.786 775.243 281.709C773.234 279.899 771.151 278.851 768.995 278.567C766.839 278.283 764.684 278.655 762.528 279.685C760.395 280.714 758.353 282.287 756.401 284.405C754.461 286.534 753.091 288.713 752.289 290.941C751.499 293.18 751.358 295.368 751.866 297.506C752.396 299.642 753.666 301.615 755.675 303.425C757.981 305.503 760.376 306.585 762.862 306.671C765.358 306.745 767.79 306.018 770.158 304.49L772.205 307.595C769.191 309.53 766.048 310.413 762.776 310.244C759.515 310.062 756.393 308.627 753.409 305.939ZM769.379 319.359L792.513 293.685L795.134 296.046L774.265 319.207L786.461 330.196L784.195 332.71L769.379 319.359ZM787.235 335.449L810.369 309.774L826.416 324.233L824.151 326.747L810.725 314.65L802.725 323.529L814.011 333.699L811.745 336.213L800.459 326.043L792.121 335.297L805.547 347.394L803.282 349.908L787.235 335.449ZM805.789 352.167L837.767 334.461L841.244 337.594L826.953 371.237L824.225 368.779L837.644 337L838.678 337.931L808.517 354.625L805.789 352.167ZM815.336 349.495L817.553 347.035L830.818 358.987L828.601 361.448L815.336 349.495ZM830.172 374.138L853.307 348.464L855.946 350.841L851.127 384.62L870.085 363.581L872.723 365.959L849.589 391.634L846.95 389.256L851.785 355.459L832.811 376.516L830.172 374.138ZM854.94 396.456L878.075 370.781L880.696 373.143L857.561 398.817L854.94 396.456ZM862.906 403.634L886.041 377.959L888.68 380.337L883.861 414.116L902.819 393.077L905.457 395.455L882.323 421.129L879.684 418.751L884.519 384.955L865.545 406.011L862.906 403.634ZM897.123 435.435C895.317 433.807 893.972 432.024 893.09 430.088C892.207 428.151 891.779 426.14 891.807 424.054C891.846 421.978 892.337 419.88 893.281 417.757C894.234 415.623 895.627 413.54 897.459 411.507C899.879 408.821 902.453 406.897 905.179 405.735C907.928 404.573 910.674 404.226 913.418 404.695C916.161 405.164 918.757 406.502 921.206 408.708C923.94 411.171 925.584 413.816 926.139 416.642C926.716 419.467 926.375 422.26 925.114 425.022L921.896 423.286C922.752 421.214 922.96 419.13 922.523 417.034C922.097 414.949 920.933 413.05 919.031 411.336C917.033 409.514 914.956 408.461 912.8 408.177C910.655 407.881 908.505 408.247 906.349 409.277C904.216 410.306 902.18 411.885 900.24 414.013C898.3 416.142 896.929 418.321 896.128 420.549C895.349 422.776 895.213 424.958 895.721 427.096C896.239 429.221 897.497 431.195 899.496 433.017C901.338 434.677 903.181 435.691 905.024 436.06C906.867 436.429 908.697 436.226 910.515 435.451C912.345 434.688 914.12 433.434 915.842 431.69L909.923 426.357L911.947 424.11L920.612 431.918C920.402 432.224 920.157 432.531 919.879 432.84C919.623 433.148 919.436 433.367 919.318 433.498C917.23 435.816 914.945 437.515 912.463 438.596C909.992 439.665 907.442 439.973 904.813 439.521C902.207 439.067 899.643 437.705 897.123 435.435Z" fill="black"/>
<path d="M772.09 232.962L795.225 207.287L797.846 209.649L774.711 235.324L772.09 232.962ZM797.051 220.563L802.834 214.144L805.455 216.506L799.672 222.924L797.051 220.563ZM787.683 247.012L810.817 221.337L813.224 223.506L803.86 254.191L833.354 241.644L835.797 243.845L812.678 269.502L810.182 267.253L828.031 247.444L801.019 259.029L799.326 257.503L808.062 229.45L790.197 249.277L787.683 247.012ZM834.61 290.266C832.804 288.638 831.459 286.855 830.576 284.919C829.694 282.982 829.266 280.971 829.294 278.885C829.333 276.81 829.824 274.711 830.767 272.588C831.721 270.454 833.114 268.371 834.945 266.338C837.366 263.652 839.94 261.728 842.666 260.567C845.415 259.404 848.161 259.057 850.905 259.526C853.648 259.995 856.244 261.333 858.693 263.539C861.427 266.002 863.071 268.647 863.626 271.473C864.203 274.298 863.862 277.091 862.601 279.853L859.383 278.118C860.239 276.045 860.447 273.961 860.01 271.865C859.584 269.78 858.42 267.881 856.518 266.167C854.52 264.345 852.443 263.292 850.287 263.008C848.142 262.712 845.992 263.079 843.836 264.108C841.703 265.137 839.667 266.716 837.727 268.845C835.787 270.973 834.416 273.152 833.615 275.38C832.836 277.607 832.7 279.789 833.208 281.927C833.726 284.052 834.984 286.026 836.983 287.848C838.825 289.508 840.668 290.523 842.511 290.891C844.354 291.26 846.184 291.057 848.002 290.282C849.832 289.519 851.607 288.265 853.329 286.522L847.41 281.188L849.434 278.941L858.099 286.749C857.889 287.055 857.644 287.362 857.366 287.671C857.11 287.979 856.923 288.198 856.805 288.329C854.716 290.647 852.432 292.346 849.95 293.427C847.479 294.496 844.929 294.804 842.3 294.352C839.693 293.898 837.13 292.536 834.61 290.266ZM859.86 313.017C857.304 310.714 855.656 308.206 854.914 305.491C854.183 302.765 854.271 299.991 855.177 297.168C856.084 294.345 857.721 291.62 860.088 288.993C862.455 286.367 864.995 284.456 867.709 283.261C870.422 282.066 873.167 281.697 875.944 282.153C878.731 282.597 881.403 283.97 883.958 286.273C886.526 288.586 888.169 291.101 888.888 293.816C889.63 296.531 889.547 299.299 888.641 302.122C887.746 304.955 886.115 307.686 883.748 310.312C881.381 312.939 878.835 314.845 876.109 316.029C873.396 317.224 870.646 317.599 867.858 317.155C865.093 316.71 862.427 315.331 859.86 313.017ZM862.125 310.503C864.134 312.313 866.222 313.366 868.39 313.661C870.558 313.956 872.708 313.589 874.841 312.56C876.997 311.531 879.039 309.946 880.967 307.806C882.894 305.667 884.253 303.477 885.043 301.239C885.845 299.01 885.986 296.833 885.468 294.708C884.949 292.582 883.691 290.609 881.693 288.787C879.684 286.977 877.602 285.929 875.446 285.645C873.29 285.361 871.134 285.734 868.979 286.763C866.846 287.792 864.809 289.371 862.869 291.5C860.93 293.628 859.559 295.807 858.757 298.035C857.978 300.262 857.843 302.445 858.35 304.582C858.869 306.707 860.127 308.681 862.125 310.503ZM885.664 336.268C883.108 333.966 881.46 331.457 880.718 328.743C879.987 326.016 880.075 323.242 880.982 320.419C881.888 317.596 883.525 314.872 885.892 312.245C888.259 309.618 890.799 307.707 893.513 306.512C896.226 305.317 898.971 304.948 901.748 305.404C904.535 305.848 907.207 307.221 909.762 309.524C912.33 311.837 913.973 314.352 914.692 317.067C915.434 319.782 915.352 322.55 914.445 325.373C913.55 328.207 911.919 330.937 909.552 333.564C907.185 336.191 904.639 338.096 901.914 339.28C899.2 340.475 896.45 340.85 893.662 340.406C890.898 339.961 888.231 338.582 885.664 336.268ZM887.929 333.754C889.938 335.564 892.026 336.617 894.194 336.912C896.362 337.207 898.513 336.84 900.646 335.812C902.801 334.782 904.843 333.197 906.771 331.058C908.699 328.918 910.057 326.729 910.847 324.49C911.649 322.262 911.791 320.085 911.272 317.959C910.754 315.834 909.495 313.86 907.497 312.038C905.488 310.228 903.406 309.181 901.25 308.896C899.094 308.612 896.938 308.985 894.783 310.015C892.65 311.043 890.613 312.622 888.674 314.751C886.734 316.88 885.363 319.058 884.561 321.286C883.782 323.514 883.647 325.696 884.154 327.833C884.673 329.959 885.931 331.932 887.929 333.754ZM901.556 349.618L924.69 323.944L932.482 330.964C932.755 331.211 933.213 331.634 933.856 332.235C934.511 332.847 935.104 333.468 935.635 334.097C937.339 336.127 938.314 338.319 938.561 340.674C938.808 343.029 938.439 345.411 937.454 347.818C936.469 350.226 934.991 352.523 933.021 354.71C931.05 356.897 928.918 358.606 926.626 359.835C924.333 361.065 922.003 361.679 919.635 361.678C917.268 361.676 914.986 360.934 912.79 359.451C912.132 358.987 911.453 358.461 910.754 357.874C910.066 357.276 909.597 356.864 909.347 356.639L901.556 349.618ZM906.531 349.546L911.612 354.125C912.1 354.564 912.633 355.024 913.213 355.503C913.816 355.982 914.357 356.361 914.836 356.642C916.569 357.73 918.322 358.211 920.094 358.085C921.878 357.97 923.627 357.391 925.34 356.351C927.064 355.298 928.697 353.916 930.239 352.204C931.792 350.481 933.003 348.707 933.871 346.883C934.739 345.059 935.132 343.26 935.051 341.486C934.97 339.711 934.305 338.024 933.055 336.424C932.725 335.976 932.28 335.478 931.719 334.93C931.181 334.38 930.68 333.896 930.216 333.478L925.135 328.9L906.531 349.546Z" fill="black"/>
<path d="M753.18 188.458L739.268 203.897C736.249 207.247 731.087 207.516 727.737 204.497C713.444 191.618 691.417 192.765 678.539 207.057L674.929 211.064C660.056 227.569 661.38 253.006 677.885 267.878L894.473 463.038C910.979 477.91 936.415 476.586 951.288 460.081L953.271 457.88C967.048 442.59 965.822 419.027 950.532 405.25C946.948 402.021 946.661 396.498 949.89 392.914L963.42 377.898C977.69 362.062 976.419 337.658 960.584 323.388L807.689 185.621C791.853 171.352 767.449 172.622 753.18 188.458Z" stroke="black"/>
<circle cx="691" cy="349" r="41" transform="rotate(-90 691 349)" fill="#2ED06E"/>
<rect x="1074" y="397" width="296" height="82" rx="41" fill="#2ED06E"/>
<path d="M1131.47 456.72C1128.03 456.72 1125.13 455.96 1122.76 454.44C1120.39 452.904 1118.6 450.784 1117.38 448.08C1116.17 445.376 1115.56 442.256 1115.56 438.72C1115.56 435.184 1116.17 432.064 1117.38 429.36C1118.6 426.656 1120.39 424.544 1122.76 423.024C1125.13 421.488 1128.03 420.72 1131.47 420.72C1135.49 420.72 1138.77 421.752 1141.31 423.816C1143.85 425.864 1145.6 428.616 1146.54 432.072L1142.94 433.008C1142.21 430.272 1140.89 428.104 1138.98 426.504C1137.08 424.904 1134.57 424.104 1131.47 424.104C1128.77 424.104 1126.52 424.72 1124.73 425.952C1122.93 427.184 1121.58 428.904 1120.67 431.112C1119.77 433.304 1119.31 435.84 1119.28 438.72C1119.26 441.6 1119.7 444.136 1120.6 446.328C1121.51 448.52 1122.87 450.24 1124.68 451.488C1126.5 452.72 1128.77 453.336 1131.47 453.336C1134.57 453.336 1137.08 452.536 1138.98 450.936C1140.89 449.32 1142.21 447.152 1142.94 444.432L1146.54 445.368C1145.6 448.824 1143.85 451.584 1141.31 453.648C1138.77 455.696 1135.49 456.72 1131.47 456.72ZM1151.84 456V421.44H1165.18C1165.52 421.44 1165.89 421.456 1166.31 421.488C1166.74 421.504 1167.17 421.552 1167.6 421.632C1169.41 421.904 1170.94 422.536 1172.19 423.528C1173.45 424.504 1174.4 425.736 1175.04 427.224C1175.7 428.712 1176.03 430.36 1176.03 432.168C1176.03 434.776 1175.34 437.04 1173.96 438.96C1172.59 440.88 1170.62 442.088 1168.06 442.584L1166.84 442.872H1155.36V456H1151.84ZM1172.76 456L1165.95 441.936L1169.33 440.64L1176.82 456H1172.76ZM1155.36 439.512H1165.08C1165.37 439.512 1165.71 439.496 1166.09 439.464C1166.48 439.432 1166.85 439.376 1167.22 439.296C1168.4 439.04 1169.37 438.552 1170.12 437.832C1170.89 437.112 1171.46 436.256 1171.83 435.264C1172.21 434.272 1172.4 433.24 1172.4 432.168C1172.4 431.096 1172.21 430.064 1171.83 429.072C1171.46 428.064 1170.89 427.2 1170.12 426.48C1169.37 425.76 1168.4 425.272 1167.22 425.016C1166.85 424.936 1166.48 424.888 1166.09 424.872C1165.71 424.84 1165.37 424.824 1165.08 424.824H1155.36V439.512ZM1182.12 456V421.44H1203.72V424.824H1185.65V436.776H1200.84V440.16H1185.65V452.616H1203.72V456H1182.12ZM1207.09 456L1219 421.44H1223.68L1235.58 456H1231.91L1220.6 423.408H1222L1210.76 456H1207.09ZM1212.4 447.624V444.312H1230.25V447.624H1212.4ZM1246.25 456V424.824H1234.18V421.44H1261.85V424.824H1249.78V456H1246.25ZM1266.18 456V421.44H1269.7V456H1266.18ZM1285.68 456L1273.78 421.44H1277.45L1287.99 451.992L1298.6 421.44H1302.27L1290.36 456H1285.68ZM1305.87 456V421.44H1327.47V424.824H1309.4V436.776H1324.59V440.16H1309.4V452.616H1327.47V456H1305.87Z" fill="white"/>
<rect x="976" y="310" width="357" height="82" rx="41" fill="white"/>
<path d="M1019.72 369V334.44H1041.32V337.824H1023.25V349.776H1038.44V353.16H1023.25V365.616H1041.32V369H1019.72ZM1044.21 369L1056.19 351.504L1044.53 334.44H1048.8L1058.28 348.552L1067.76 334.44H1072.05L1060.39 351.504L1072.34 369H1068.07L1058.28 354.48L1048.51 369H1044.21ZM1076.2 369V334.44H1089.55C1089.88 334.44 1090.26 334.456 1090.68 334.488C1091.11 334.504 1091.54 334.552 1091.97 334.632C1093.78 334.904 1095.31 335.536 1096.56 336.528C1097.82 337.504 1098.77 338.736 1099.41 340.224C1100.07 341.712 1100.4 343.36 1100.4 345.168C1100.4 346.96 1100.07 348.6 1099.41 350.088C1098.76 351.576 1097.8 352.816 1096.53 353.808C1095.28 354.784 1093.76 355.408 1091.97 355.68C1091.54 355.744 1091.11 355.792 1090.68 355.824C1090.26 355.856 1089.88 355.872 1089.55 355.872H1079.73V369H1076.2ZM1079.73 352.512H1089.45C1089.74 352.512 1090.08 352.496 1090.46 352.464C1090.84 352.432 1091.22 352.376 1091.59 352.296C1092.77 352.04 1093.74 351.552 1094.49 350.832C1095.26 350.112 1095.83 349.256 1096.2 348.264C1096.58 347.272 1096.77 346.24 1096.77 345.168C1096.77 344.096 1096.58 343.064 1096.2 342.072C1095.83 341.064 1095.26 340.2 1094.49 339.48C1093.74 338.76 1092.77 338.272 1091.59 338.016C1091.22 337.936 1090.84 337.888 1090.46 337.872C1090.08 337.84 1089.74 337.824 1089.45 337.824H1079.73V352.512ZM1105.17 369V334.44H1126.77V337.824H1108.7V349.776H1123.89V353.16H1108.7V365.616H1126.77V369H1105.17ZM1132.55 369V334.44H1145.89C1146.23 334.44 1146.6 334.456 1147.02 334.488C1147.45 334.504 1147.88 334.552 1148.32 334.632C1150.12 334.904 1151.65 335.536 1152.9 336.528C1154.16 337.504 1155.12 338.736 1155.76 340.224C1156.41 341.712 1156.74 343.36 1156.74 345.168C1156.74 347.776 1156.05 350.04 1154.68 351.96C1153.3 353.88 1151.33 355.088 1148.77 355.584L1147.55 355.872H1136.08V369H1132.55ZM1153.48 369L1146.66 354.936L1150.04 353.64L1157.53 369H1153.48ZM1136.08 352.512H1145.8C1146.08 352.512 1146.42 352.496 1146.8 352.464C1147.19 352.432 1147.56 352.376 1147.93 352.296C1149.12 352.04 1150.08 351.552 1150.84 350.832C1151.6 350.112 1152.17 349.256 1152.54 348.264C1152.92 347.272 1153.12 346.24 1153.12 345.168C1153.12 344.096 1152.92 343.064 1152.54 342.072C1152.17 341.064 1151.6 340.2 1150.84 339.48C1150.08 338.76 1149.12 338.272 1147.93 338.016C1147.56 337.936 1147.19 337.888 1146.8 337.872C1146.42 337.84 1146.08 337.824 1145.8 337.824H1136.08V352.512ZM1163.31 369V334.44H1166.84V369H1163.31ZM1174.03 369V334.44H1195.63V337.824H1177.56V349.776H1192.75V353.16H1177.56V365.616H1195.63V369H1174.03ZM1201.41 369V334.44H1204.96L1223.99 362.76V334.44H1227.54V369H1223.99L1204.96 340.656V369H1201.41ZM1248.26 369.72C1244.82 369.72 1241.91 368.96 1239.55 367.44C1237.18 365.904 1235.39 363.784 1234.17 361.08C1232.95 358.376 1232.35 355.256 1232.35 351.72C1232.35 348.184 1232.95 345.064 1234.17 342.36C1235.39 339.656 1237.18 337.544 1239.55 336.024C1241.91 334.488 1244.82 333.72 1248.26 333.72C1252.27 333.72 1255.55 334.752 1258.1 336.816C1260.64 338.864 1262.39 341.616 1263.33 345.072L1259.73 346.008C1258.99 343.272 1257.67 341.104 1255.77 339.504C1253.87 337.904 1251.36 337.104 1248.26 337.104C1245.55 337.104 1243.31 337.72 1241.51 338.952C1239.72 340.184 1238.37 341.904 1237.46 344.112C1236.56 346.304 1236.1 348.84 1236.07 351.72C1236.05 354.6 1236.49 357.136 1237.39 359.328C1238.3 361.52 1239.66 363.24 1241.47 364.488C1243.29 365.72 1245.55 366.336 1248.26 366.336C1251.36 366.336 1253.87 365.536 1255.77 363.936C1257.67 362.32 1258.99 360.152 1259.73 357.432L1263.33 358.368C1262.39 361.824 1260.64 364.584 1258.1 366.648C1255.55 368.696 1252.27 369.72 1248.26 369.72ZM1268.63 369V334.44H1290.23V337.824H1272.15V349.776H1287.35V353.16H1272.15V365.616H1290.23V369H1268.63Z" fill="black"/>
<rect x="424" y="222.294" width="257" height="82" rx="41" transform="rotate(-20.8069 424 222.294)" fill="white"/>
<path d="M503.92 227.723L500.8 219.512L480.968 227.048L484.088 235.259L503.92 227.723ZM503.309 215.169L508.68 229.303L481.624 239.585L476.253 225.451L503.309 215.169ZM489.715 250.066L492.937 258.547L517.077 249.373L518.22 252.38L490.4 262.951L486.035 251.464L489.715 250.066ZM478.607 245.969L515.176 232.073L516.301 235.034L500.148 241.172L503.234 249.293L499.555 250.692L496.468 242.57L479.732 248.93L478.607 245.969ZM526.88 212.888L528.261 216.522C530.921 223.522 536.587 229.379 543.345 230.406L542.124 233.95C537.334 233.1 532.915 229.85 529.581 225.264C530.287 231.311 529.161 237.131 526.122 241.161L522.838 239.276C527.168 233.78 527.53 225.272 524.717 217.869L523.336 214.235L515.708 217.133L514.565 214.127L532.917 207.153L534.059 210.16L526.88 212.888ZM540.207 215.526L535.057 201.975L538.557 200.645L552.709 237.887L549.209 239.217L541.349 218.532L534.708 221.056L533.566 218.049L540.207 215.526ZM542.776 197.964L546.32 196.617L561.615 236.865L558.07 238.212L542.776 197.964ZM573.973 218.048C577.069 216.871 578.34 213.461 576.976 209.872C575.646 206.372 572.431 204.667 569.335 205.843C566.194 207.037 564.967 210.43 566.297 213.93C567.661 217.519 570.832 219.241 573.973 218.048ZM568.159 202.747C573.139 200.855 578.206 203.243 580.252 208.627C582.332 214.101 580.113 219.206 575.132 221.099C570.152 222.992 565.102 220.649 563.022 215.175C560.976 209.79 563.178 204.64 568.159 202.747ZM565.623 190.669L567.788 196.367L575.954 193.264L577.097 196.27L557.13 203.858L555.987 200.851L564.154 197.748L561.988 192.05L565.623 190.669ZM583.963 182.313L587.507 180.966L602.802 221.214L599.257 222.561L591.567 202.325L586.407 204.286L593.364 222.592L589.909 223.905L575.706 186.529L579.161 185.216L585.265 201.279L590.425 199.318L583.963 182.313ZM627.442 175.804L617.526 179.572C617.417 186.853 612.907 193.497 604.824 198.981L602.336 196.487C611.293 190.464 615.077 183.532 613.329 176.905L599.33 182.224L598.187 179.218L616.18 172.381C616.691 173.727 617.034 175.035 617.242 176.393L626.351 172.932L624.134 167.099L627.859 165.684L635.668 186.234L631.943 187.649L630.358 183.476L619.858 187.466L618.767 184.594L629.267 180.605L627.442 175.804ZM619.681 211.051L643.237 202.1L644.345 205.016L617.154 215.349L613.216 204.984L635.381 196.561L633.813 192.433L611.557 200.89L610.432 197.929L636.367 188.074L640.118 197.945L617.907 206.385L619.681 211.051Z" fill="black"/>
<circle cx="400" cy="213" r="41" transform="rotate(-90 400 213)" fill="#0E0E0E"/>
<path d="M388.611 212.431H411.456" stroke="#FEFCF2" stroke-width="2.27778"/>
<path d="M404.804 205.148L412.052 212.396L404.804 219.644" stroke="#FEFCF2" stroke-width="2.27778" stroke-linecap="round" stroke-linejoin="round"/>
<path d="M1434 444.059C1430.72 445.101 1427.72 445.257 1425.01 444.526C1422.29 443.78 1419.93 442.303 1417.96 440.095C1415.98 437.886 1414.45 435.097 1413.38 431.728C1412.31 428.358 1411.94 425.2 1412.28 422.255C1412.62 419.31 1413.69 416.754 1415.49 414.588C1417.28 412.406 1419.81 410.794 1423.09 409.752C1426.92 408.535 1430.36 408.524 1433.41 409.72C1436.45 410.901 1438.95 412.995 1440.89 416.002L1437.75 417.985C1436.22 415.601 1434.3 413.935 1432 412.987C1429.7 412.04 1427.07 412.036 1424.12 412.977C1421.54 413.796 1419.58 415.065 1418.25 416.782C1416.91 418.499 1416.15 420.548 1415.95 422.928C1415.76 425.289 1416.08 427.846 1416.93 430.6C1417.78 433.35 1418.97 435.633 1420.49 437.45C1422.02 439.263 1423.84 440.49 1425.94 441.131C1428.05 441.753 1430.4 441.654 1432.98 440.834C1435.93 439.893 1438.08 438.372 1439.41 436.27C1440.73 434.153 1441.33 431.687 1441.21 428.872L1444.92 428.673C1445.07 432.253 1444.25 435.411 1442.45 438.149C1440.64 440.872 1437.83 442.842 1434 444.059ZM1453.19 437.2L1442.72 404.266L1455.43 400.222C1455.76 400.12 1456.12 400.021 1456.52 399.926C1456.94 399.81 1457.37 399.725 1457.8 399.67C1459.61 399.381 1461.26 399.521 1462.75 400.088C1464.25 400.635 1465.53 401.52 1466.59 402.744C1467.66 403.964 1468.48 405.435 1469.02 407.158C1469.81 409.643 1469.84 412.009 1469.12 414.256C1468.39 416.502 1466.88 418.25 1464.59 419.499L1463.51 420.144L1452.58 423.621L1456.55 436.131L1453.19 437.2ZM1473.14 430.858L1462.38 419.521L1465.21 417.261L1477 429.629L1473.14 430.858ZM1451.56 420.419L1460.82 417.473C1461.09 417.386 1461.41 417.269 1461.77 417.122C1462.12 416.975 1462.46 416.808 1462.79 416.62C1463.84 416.017 1464.62 415.259 1465.11 414.345C1465.63 413.426 1465.91 412.438 1465.96 411.381C1466.02 410.319 1465.9 409.278 1465.57 408.256C1465.25 407.234 1464.75 406.309 1464.08 405.48C1463.43 404.631 1462.62 403.98 1461.67 403.526C1460.74 403.068 1459.67 402.896 1458.46 403.011C1458.09 403.047 1457.71 403.115 1457.34 403.216C1456.97 403.302 1456.64 403.388 1456.37 403.476L1447.11 406.421L1451.56 420.419ZM1482.05 428.024L1471.58 395.089L1492.16 388.543L1493.19 391.768L1475.96 397.244L1479.59 408.634L1494.06 404.03L1495.09 407.255L1480.61 411.859L1484.39 423.73L1501.61 418.253L1502.63 421.478L1482.05 428.024ZM1505.85 420.455L1506.72 383.912L1511.18 382.494L1533 411.821L1529.5 412.934L1508.85 385.301L1510.18 384.879L1509.35 419.342L1505.85 420.455ZM1508.37 410.865L1507.36 407.709L1524.38 402.298L1525.38 405.454L1508.37 410.865ZM1543.16 408.589L1533.71 378.879L1522.21 382.537L1521.19 379.313L1547.56 370.926L1548.58 374.151L1537.08 377.81L1546.52 407.52L1543.16 408.589ZM1562.15 402.549L1551.68 369.615L1555.04 368.545L1565.52 401.48L1562.15 402.549ZM1572.37 399.3L1561.9 366.365L1565.28 365.289L1592 386.509L1583.42 359.521L1586.81 358.444L1597.28 391.379L1593.9 392.456L1567.17 371.212L1575.76 398.223L1572.37 399.3ZM1617.1 385.831C1614.78 386.568 1612.57 386.828 1610.45 386.612C1608.33 386.395 1606.38 385.748 1604.59 384.671C1602.82 383.589 1601.26 382.105 1599.9 380.219C1598.54 378.318 1597.45 376.063 1596.62 373.456C1595.52 370.01 1595.16 366.817 1595.54 363.877C1595.92 360.918 1597.01 358.372 1598.8 356.241C1600.59 354.111 1603.06 352.546 1606.2 351.547C1609.71 350.432 1612.82 350.348 1615.54 351.297C1618.27 352.225 1620.51 353.931 1622.25 356.415L1619.13 358.314C1617.77 356.53 1616.08 355.297 1614.05 354.616C1612.04 353.93 1609.81 353.975 1607.37 354.751C1604.79 355.555 1602.83 356.816 1601.5 358.533C1600.16 360.235 1599.39 362.276 1599.19 364.657C1599 367.017 1599.33 369.572 1600.19 372.321C1601.05 375.071 1602.23 377.354 1603.75 379.172C1605.28 380.969 1607.1 382.188 1609.2 382.83C1611.29 383.456 1613.63 383.367 1616.21 382.563C1618.58 381.811 1620.38 380.733 1621.63 379.328C1622.88 377.924 1623.63 376.241 1623.88 374.282C1624.15 372.317 1623.96 370.151 1623.33 367.784L1615.73 370.199L1614.82 367.317L1625.93 363.782C1626.09 364.119 1626.23 364.485 1626.36 364.881C1626.49 365.258 1626.59 365.53 1626.64 365.697C1627.59 368.671 1627.9 371.501 1627.58 374.189C1627.25 376.861 1626.23 379.217 1624.51 381.258C1622.8 383.279 1620.33 384.803 1617.1 385.831ZM1653.86 373.387L1644.41 343.677L1632.9 347.336L1631.88 344.111L1658.25 335.725L1659.28 338.95L1647.77 342.608L1657.22 372.318L1653.86 373.387ZM1685.94 363.939C1682.66 364.982 1679.67 365.137 1676.95 364.407C1674.23 363.66 1671.88 362.183 1669.9 359.975C1667.92 357.767 1666.4 354.977 1665.32 351.608C1664.25 348.238 1663.89 345.081 1664.23 342.135C1664.57 339.19 1665.63 336.634 1667.43 334.468C1669.22 332.287 1671.75 330.675 1675.03 329.632C1678.33 328.585 1681.33 328.437 1684.03 329.188C1686.75 329.918 1689.1 331.388 1691.08 333.596C1693.07 335.8 1694.6 338.586 1695.67 341.956C1696.75 345.326 1697.1 348.486 1696.75 351.436C1696.41 354.381 1695.35 356.945 1693.55 359.126C1691.77 361.287 1689.24 362.892 1685.94 363.939ZM1684.92 360.714C1687.49 359.895 1689.46 358.624 1690.81 356.902C1692.16 355.18 1692.93 353.139 1693.12 350.778C1693.32 348.398 1692.98 345.835 1692.11 343.091C1691.23 340.346 1690.03 338.068 1688.5 336.255C1686.98 334.438 1685.17 333.216 1683.08 332.59C1680.98 331.964 1678.64 332.053 1676.06 332.857C1673.48 333.676 1671.53 334.945 1670.19 336.662C1668.86 338.379 1668.09 340.428 1667.89 342.808C1667.7 345.169 1668.03 347.724 1668.89 350.473C1669.75 353.223 1670.94 355.506 1672.46 357.323C1673.98 359.121 1675.8 360.34 1677.9 360.981C1680 361.607 1682.34 361.518 1684.92 360.714ZM1718.91 353.456C1716.59 354.193 1714.37 354.454 1712.25 354.237C1710.14 354.021 1708.19 353.374 1706.4 352.296C1704.63 351.214 1703.06 349.73 1701.71 347.844C1700.35 345.943 1699.25 343.689 1698.43 341.081C1697.33 337.635 1696.97 334.443 1697.34 331.503C1697.73 328.543 1698.82 325.998 1700.61 323.867C1702.4 321.736 1704.86 320.171 1708 319.172C1711.51 318.057 1714.62 317.974 1717.34 318.922C1720.07 319.85 1722.31 321.556 1724.06 324.04L1720.93 325.94C1719.58 324.155 1717.89 322.922 1715.86 322.241C1713.84 321.555 1711.61 321.6 1709.17 322.376C1706.59 323.18 1704.63 324.441 1703.3 326.158C1701.96 327.86 1701.19 329.901 1700.99 332.282C1700.8 334.642 1701.14 337.197 1701.99 339.947C1702.85 342.696 1704.04 344.98 1705.56 346.797C1707.09 348.594 1708.9 349.814 1711 350.455C1713.1 351.081 1715.44 350.992 1718.02 350.188C1720.38 349.436 1722.19 348.358 1723.44 346.954C1724.69 345.549 1725.44 343.867 1725.69 341.907C1725.95 339.942 1725.77 337.776 1725.13 335.41L1717.54 337.824L1716.62 334.943L1727.74 331.408C1727.89 331.744 1728.03 332.11 1728.16 332.507C1728.3 332.883 1728.39 333.155 1728.45 333.323C1729.39 336.296 1729.7 339.126 1729.38 341.814C1729.06 344.486 1728.04 346.843 1726.32 348.883C1724.61 350.904 1722.14 352.428 1718.91 353.456ZM1737.74 346.71L1727.27 313.776L1747.85 307.23L1748.88 310.455L1731.66 315.931L1735.28 327.321L1749.76 322.717L1750.78 325.942L1736.31 330.546L1740.08 342.416L1757.3 336.94L1758.33 340.164L1737.74 346.71ZM1772.59 335.629L1763.14 305.919L1751.64 309.577L1750.61 306.352L1776.98 297.966L1778.01 301.191L1766.51 304.85L1775.95 334.559L1772.59 335.629ZM1791.13 329.735L1780.65 296.8L1784.01 295.731L1788.73 310.574L1806.94 304.785L1802.22 289.941L1805.56 288.879L1816.03 321.814L1812.69 322.876L1807.97 308.01L1789.76 313.799L1794.49 328.666L1791.13 329.735ZM1822.44 319.777L1811.97 286.842L1832.55 280.296L1833.58 283.521L1816.35 288.997L1819.98 300.387L1834.45 295.783L1835.48 299.008L1821 303.612L1824.78 315.482L1842 310.006L1843.02 313.231L1822.44 319.777ZM1848.53 311.48L1838.05 278.546L1850.77 274.502C1851.09 274.4 1851.45 274.301 1851.86 274.206C1852.28 274.09 1852.7 274.005 1853.14 273.95C1854.94 273.661 1856.59 273.801 1858.08 274.368C1859.58 274.915 1860.86 275.8 1861.92 277.024C1863 278.244 1863.81 279.715 1864.36 281.438C1865.15 283.923 1865.18 286.289 1864.45 288.536C1863.72 290.782 1862.21 292.53 1859.92 293.779L1858.84 294.424L1847.91 297.901L1851.89 310.411L1848.53 311.48ZM1868.47 305.138L1857.71 293.801L1860.55 291.541L1872.34 303.909L1868.47 305.138ZM1846.89 294.699L1856.16 291.753C1856.43 291.666 1856.75 291.549 1857.1 291.402C1857.46 291.255 1857.8 291.088 1858.13 290.9C1859.18 290.297 1859.95 289.539 1860.45 288.625C1860.96 287.706 1861.24 286.718 1861.29 285.661C1861.36 284.599 1861.23 283.558 1860.91 282.536C1860.58 281.514 1860.08 280.589 1859.42 279.76C1858.76 278.911 1857.96 278.26 1857.01 277.806C1856.07 277.348 1855 277.176 1853.8 277.291C1853.42 277.327 1853.05 277.395 1852.68 277.496C1852.3 277.582 1851.98 277.668 1851.7 277.756L1842.44 280.701L1846.89 294.699Z" fill="black"/>
<path d="M1498.02 353.688L1487.55 320.754L1490.91 319.685L1500.36 349.394L1516 344.42L1517.02 347.644L1498.02 353.688ZM1520.92 346.404L1510.45 313.47L1531.03 306.924L1532.06 310.149L1514.84 315.625L1518.46 327.015L1532.94 322.411L1533.96 325.636L1519.49 330.24L1523.26 342.11L1540.48 336.634L1541.51 339.858L1520.92 346.404ZM1555.77 335.323L1546.32 305.613L1534.82 309.271L1533.79 306.046L1560.16 297.66L1561.19 300.885L1549.69 304.544L1559.13 334.253L1555.77 335.323ZM1565.99 304.873L1563.37 296.639L1566.74 295.57L1569.35 303.804L1565.99 304.873ZM1594.85 323.651C1592.55 324.383 1590.35 324.662 1588.26 324.486C1586.19 324.29 1584.32 323.675 1582.67 322.64C1581.02 321.6 1579.71 320.163 1578.72 318.327L1581.97 316.664C1583.2 318.625 1584.89 319.933 1587.05 320.591C1589.2 321.233 1591.51 321.163 1593.96 320.383C1595.58 319.869 1596.95 319.157 1598.07 318.246C1599.18 317.32 1599.96 316.268 1600.39 315.09C1600.82 313.912 1600.83 312.675 1600.42 311.379C1600.14 310.525 1599.76 309.849 1599.27 309.352C1598.77 308.839 1598.2 308.464 1597.57 308.228C1596.95 307.991 1596.29 307.838 1595.62 307.768C1594.93 307.683 1594.28 307.646 1593.67 307.657L1584.53 307.819C1583.43 307.85 1582.38 307.779 1581.39 307.609C1580.39 307.423 1579.47 307.119 1578.63 306.698C1577.8 306.256 1577.07 305.664 1576.45 304.922C1575.83 304.179 1575.34 303.259 1574.99 302.162C1574.4 300.301 1574.38 298.538 1574.92 296.87C1575.47 295.203 1576.47 293.734 1577.93 292.464C1579.39 291.194 1581.2 290.222 1583.37 289.549C1585.57 288.851 1587.65 288.616 1589.62 288.846C1591.61 289.071 1593.4 289.728 1594.98 290.818C1596.57 291.892 1597.86 293.355 1598.85 295.205L1595.53 296.966C1594.85 295.605 1593.92 294.53 1592.77 293.74C1591.61 292.95 1590.3 292.476 1588.84 292.319C1587.39 292.142 1585.9 292.289 1584.37 292.758C1582.89 293.228 1581.65 293.899 1580.65 294.771C1579.66 295.623 1578.97 296.582 1578.57 297.649C1578.17 298.717 1578.15 299.799 1578.5 300.897C1578.85 302.01 1579.44 302.805 1580.26 303.282C1581.1 303.754 1582.03 304.038 1583.05 304.133C1584.09 304.223 1585.07 304.254 1586 304.227L1593.06 304.074C1593.78 304.044 1594.65 304.061 1595.67 304.125C1596.69 304.17 1597.73 304.377 1598.78 304.745C1599.85 305.094 1600.83 305.69 1601.72 306.532C1602.61 307.374 1603.3 308.58 1603.8 310.151C1604.29 311.676 1604.42 313.137 1604.19 314.536C1603.98 315.929 1603.45 317.213 1602.62 318.385C1601.8 319.553 1600.72 320.583 1599.39 321.475C1598.09 322.378 1596.57 323.103 1594.85 323.651ZM1632.19 311.775C1629.89 312.507 1627.7 312.786 1625.61 312.61C1623.53 312.414 1621.67 311.799 1620.01 310.764C1618.37 309.724 1617.06 308.287 1616.07 306.451L1619.32 304.789C1620.55 306.749 1622.24 308.057 1624.4 308.715C1626.55 309.357 1628.85 309.287 1631.3 308.507C1632.92 307.993 1634.29 307.281 1635.41 306.37C1636.53 305.444 1637.3 304.392 1637.73 303.214C1638.16 302.036 1638.17 300.799 1637.76 299.503C1637.49 298.649 1637.11 297.974 1636.61 297.476C1636.11 296.963 1635.55 296.588 1634.92 296.352C1634.29 296.115 1633.64 295.962 1632.96 295.892C1632.28 295.807 1631.63 295.77 1631.01 295.782L1621.87 295.943C1620.77 295.974 1619.72 295.903 1618.73 295.733C1617.73 295.547 1616.81 295.243 1615.97 294.822C1615.14 294.38 1614.42 293.788 1613.8 293.046C1613.17 292.304 1612.69 291.383 1612.34 290.286C1611.75 288.425 1611.72 286.662 1612.27 284.994C1612.81 283.327 1613.81 281.858 1615.27 280.588C1616.73 279.318 1618.55 278.346 1620.72 277.673C1622.91 276.975 1625 276.74 1626.97 276.97C1628.95 277.195 1630.74 277.852 1632.33 278.942C1633.91 280.016 1635.2 281.479 1636.19 283.33L1632.87 285.09C1632.19 283.729 1631.27 282.654 1630.11 281.864C1628.95 281.074 1627.64 280.6 1626.18 280.443C1624.73 280.266 1623.24 280.413 1621.71 280.882C1620.24 281.353 1619 282.024 1618 282.895C1617.01 283.747 1616.32 284.706 1615.92 285.773C1615.52 286.841 1615.49 287.923 1615.84 289.021C1616.19 290.134 1616.78 290.929 1617.61 291.406C1618.44 291.878 1619.37 292.162 1620.4 292.257C1621.43 292.347 1622.42 292.378 1623.35 292.351L1630.4 292.198C1631.13 292.168 1632 292.185 1633.01 292.249C1634.03 292.294 1635.07 292.501 1636.13 292.87C1637.2 293.218 1638.18 293.814 1639.06 294.656C1639.95 295.498 1640.65 296.704 1641.15 298.275C1641.63 299.8 1641.76 301.261 1641.53 302.66C1641.32 304.054 1640.8 305.337 1639.96 306.509C1639.14 307.677 1638.07 308.707 1636.74 309.599C1635.43 310.502 1633.92 311.227 1632.19 311.775ZM1657.49 302.976L1648.04 273.266L1636.53 276.925L1635.51 273.7L1661.88 265.314L1662.9 268.539L1651.4 272.197L1660.85 301.907L1657.49 302.976ZM1672.84 298.094L1673.71 261.552L1678.17 260.133L1699.99 289.46L1696.49 290.573L1675.84 262.94L1677.17 262.518L1676.34 296.981L1672.84 298.094ZM1675.36 288.504L1674.35 285.348L1691.37 279.937L1692.37 283.093L1675.36 288.504ZM1704.12 288.147L1693.64 255.212L1706.36 251.168C1706.68 251.066 1707.04 250.968 1707.45 250.872C1707.87 250.757 1708.29 250.671 1708.73 250.617C1710.53 250.328 1712.18 250.467 1713.67 251.034C1715.17 251.581 1716.45 252.467 1717.51 253.691C1718.59 254.91 1719.4 256.381 1719.95 258.104C1720.74 260.59 1720.77 262.956 1720.04 265.202C1719.31 267.449 1717.8 269.197 1715.51 270.445L1714.43 271.091L1703.5 274.567L1707.48 287.078L1704.12 288.147ZM1724.06 281.805L1713.3 270.468L1716.14 268.207L1727.93 280.576L1724.06 281.805ZM1702.48 271.365L1711.75 268.42C1712.02 268.332 1712.34 268.215 1712.69 268.068C1713.05 267.921 1713.39 267.754 1713.72 267.566C1714.77 266.964 1715.54 266.205 1716.04 265.291C1716.55 264.372 1716.84 263.384 1716.89 262.328C1716.95 261.266 1716.82 260.224 1716.5 259.203C1716.17 258.181 1715.68 257.256 1715.01 256.427C1714.35 255.578 1713.55 254.926 1712.6 254.473C1711.67 254.015 1710.59 253.843 1709.39 253.958C1709.01 253.993 1708.64 254.061 1708.27 254.163C1707.89 254.248 1707.57 254.335 1707.3 254.422L1698.03 257.368L1702.48 271.365ZM1741.74 276.185L1732.29 246.475L1720.78 250.133L1719.76 246.908L1746.13 238.522L1747.15 241.747L1735.65 245.405L1745.1 275.115L1741.74 276.185Z" fill="black"/>
<path d="M1449.88 347.585L1452.79 356.717C1456.03 366.909 1450.4 377.798 1440.2 381.039L1399.81 393.886C1378.63 400.619 1366.93 423.241 1373.66 444.414C1380.39 465.586 1403.02 477.292 1424.19 470.559L1881.18 325.231C1902.35 318.498 1914.06 295.876 1907.33 274.703C1900.59 253.531 1877.97 241.825 1856.8 248.558L1816.64 261.329C1806.48 264.56 1795.62 258.943 1792.39 248.782L1789.47 239.593C1783.01 219.28 1761.31 208.049 1740.99 214.509L1474.97 299.107C1454.66 305.566 1443.42 327.271 1449.88 347.585Z" stroke="black"/>
<rect x="1080" y="223" width="257" height="82" rx="41" fill="white"/>
<path d="M1127.15 253.776C1127.15 257.616 1130.22 260.352 1134.49 260.352C1138.72 260.352 1141.79 257.616 1141.79 253.776C1141.79 249.888 1138.72 247.2 1134.49 247.2C1130.22 247.2 1127.15 249.888 1127.15 253.776ZM1154.22 250.8H1145.1C1145.39 251.712 1145.53 252.72 1145.53 253.776C1145.53 254.736 1145.39 255.696 1145.15 256.56H1154.22V250.8ZM1154.22 259.68H1143.52C1141.5 262.08 1138.33 263.568 1134.49 263.52C1128.06 263.52 1123.4 259.488 1123.4 253.776C1123.4 247.968 1128.06 243.984 1134.49 243.984C1138.24 243.984 1141.4 245.376 1143.37 247.68H1154.22V242.496H1158.16V264.576H1154.22V259.68ZM1134.4 281.856H1159.79V284.976H1130.51V274.176H1154.27V269.904H1130.41V266.784H1158.16V277.152H1134.4V281.856ZM1189.88 253.68H1198.38V242.544H1202.36V268.176H1198.38V256.896H1189.88V253.68ZM1192.28 263.472L1190.31 266.544C1185.51 264.816 1181.82 261.264 1179.94 256.848C1178.12 261.84 1174.14 265.872 1169.1 267.792L1167.03 264.672C1173.46 262.32 1177.88 256.512 1177.88 250.32V248.832H1168.28V245.664H1191.27V248.832H1181.82V250.32C1181.82 255.84 1186.04 261.264 1192.28 263.472ZM1188.15 282.48C1194.63 282.48 1198.57 280.656 1198.57 277.536C1198.57 274.416 1194.63 272.544 1188.15 272.544C1181.67 272.544 1177.74 274.416 1177.74 277.536C1177.74 280.656 1181.67 282.48 1188.15 282.48ZM1188.15 269.52C1196.98 269.52 1202.5 272.448 1202.5 277.536C1202.5 282.624 1196.98 285.552 1188.15 285.552C1179.32 285.552 1173.8 282.624 1173.8 277.536C1173.8 272.448 1179.32 269.52 1188.15 269.52ZM1236.44 263.52L1234.47 266.592C1229.67 264.864 1225.97 261.312 1224.05 256.848C1222.23 261.792 1218.29 265.728 1213.25 267.6L1211.19 264.48C1217.57 262.224 1222.04 256.464 1222.04 250.368V248.64H1212.44V245.424H1235.43V248.64H1225.97V250.368C1225.97 255.888 1230.2 261.312 1236.44 263.52ZM1217.72 273.792V270.624H1246.52V285.6H1242.53V273.792H1217.72ZM1242.53 242.496H1246.52V268.272H1242.53V256.944H1234.13V253.728H1242.53V242.496ZM1290.53 242.544V273.984H1286.59V242.544H1290.53ZM1260.05 256.08C1260.05 260.352 1263.22 263.328 1267.39 263.328C1271.66 263.328 1274.83 260.352 1274.83 256.08C1274.83 251.904 1271.66 248.928 1267.39 248.928C1263.22 248.928 1260.05 251.904 1260.05 256.08ZM1278.67 256.08C1278.67 262.32 1273.82 266.736 1267.39 266.736C1261.01 266.736 1256.21 262.32 1256.21 256.08C1256.21 249.888 1261.01 245.52 1267.39 245.52C1273.82 245.52 1278.67 249.888 1278.67 256.08ZM1266.77 281.376H1291.82V284.592H1262.83V270.768H1266.77V281.376Z" fill="black"/>
<rect x="1251.13" y="101" width="213" height="82" rx="41" transform="rotate(26.1433 1251.13 101)" fill="#2ED06E"/>
<path d="M1312.66 152.973L1298.66 181.498L1295.13 179.764L1309.13 151.239L1312.66 152.973ZM1294.73 169.463L1291.7 171.396C1287.91 167.774 1285.88 162.981 1286.06 158.149C1282.29 161.59 1277.1 163.217 1271.77 162.526L1271.4 158.923C1278.11 159.861 1284.42 156.916 1287.06 151.53L1287.55 150.539L1278.76 146.225L1280.16 143.381L1288.95 147.695L1291.4 142.697L1294.93 144.431L1292.48 149.43L1301.18 153.702L1299.79 156.546L1291.04 152.252L1290.55 153.243C1288.06 158.328 1289.87 164.883 1294.73 169.463ZM1274.22 177.363L1296.72 188.404L1295.3 191.291L1269.27 178.516L1275.09 166.667L1278.62 168.401L1274.22 177.363ZM1337 175.612L1344.62 179.355L1348.85 170.737L1352.39 172.472L1342.6 192.422L1339.06 190.688L1343.23 182.199L1335.6 178.456L1337 175.612ZM1335.05 184.707L1332.01 186.639C1328.34 183.124 1326.46 178.459 1326.64 173.842C1322.97 177.175 1317.77 178.845 1312.48 178.175L1312.07 174.55C1318.66 175.382 1325.04 172.523 1327.49 167.524L1328 166.49L1319.43 162.281L1320.82 159.437L1341.5 169.589L1340.11 172.433L1331.58 168.246L1331.07 169.28C1328.79 173.933 1330.4 180.233 1335.05 184.707ZM1313.7 197.379L1336.49 208.567L1335.11 211.368L1308.83 198.467L1313.59 188.771L1334.92 199.241L1336.8 195.406L1315.38 184.894L1316.74 182.136L1341.64 194.361L1337.1 203.625L1315.77 193.156L1313.7 197.379ZM1381.16 191.621L1379.77 194.465L1356.97 183.277L1358.37 180.433L1367.98 185.149L1370.16 180.711L1373.69 182.446L1371.51 186.884L1381.16 191.621ZM1358.15 194.817C1356.9 197.36 1358.41 200.182 1361.94 201.917C1365.47 203.651 1368.67 203.134 1369.92 200.591C1371.16 198.049 1369.62 195.205 1366.08 193.471C1362.55 191.737 1359.4 192.275 1358.15 194.817ZM1373.28 202.241C1371.22 206.421 1366.16 207.252 1360.65 204.545C1355.13 201.838 1352.74 197.347 1354.79 193.168C1356.86 188.945 1361.88 188.092 1367.4 190.8C1372.91 193.507 1375.35 198.018 1373.28 202.241ZM1355.55 209.048L1352.1 216.071L1369.43 224.573L1372.87 217.55L1355.55 209.048ZM1347.26 217.223L1353.48 204.555L1377.74 216.462L1371.52 229.13L1347.26 217.223ZM1390.91 204.108L1389.48 207.038L1383.75 204.225L1378.82 214.265L1375.28 212.53L1386.68 189.305L1390.22 191.039L1385.18 201.295L1390.91 204.108Z" fill="white"/>
<rect x="1422.81" y="99" width="281" height="82" rx="41" transform="rotate(13.9821 1422.81 99)" fill="white"/>
<path d="M1450.79 166.768L1459.14 133.232L1472.09 136.456C1472.42 136.537 1472.78 136.644 1473.17 136.775C1473.59 136.895 1474 137.046 1474.4 137.228C1476.08 137.929 1477.41 138.912 1478.39 140.176C1479.38 141.428 1480 142.854 1480.26 144.452C1480.54 146.055 1480.46 147.733 1480.02 149.487C1479.59 151.226 1478.88 152.739 1477.88 154.024C1476.89 155.309 1475.65 156.281 1474.19 156.938C1472.74 157.583 1471.12 157.822 1469.31 157.653C1468.88 157.61 1468.45 157.553 1468.02 157.479C1467.61 157.41 1467.24 157.334 1466.91 157.253L1457.39 154.882L1454.21 167.621L1450.79 166.768ZM1458.2 151.621L1467.63 153.97C1467.91 154.039 1468.24 154.105 1468.62 154.167C1469 154.228 1469.38 154.265 1469.76 154.276C1470.97 154.314 1472.02 154.074 1472.93 153.557C1473.85 153.044 1474.6 152.351 1475.2 151.477C1475.81 150.607 1476.25 149.652 1476.51 148.612C1476.77 147.572 1476.83 146.524 1476.7 145.468C1476.58 144.401 1476.24 143.426 1475.67 142.541C1475.11 141.661 1474.29 140.954 1473.21 140.419C1472.87 140.253 1472.51 140.115 1472.15 140.007C1471.78 139.883 1471.46 139.786 1471.18 139.717L1461.75 137.368L1458.2 151.621ZM1492.31 177.847C1488.97 177.016 1486.33 175.577 1484.4 173.529C1482.48 171.467 1481.25 168.977 1480.72 166.059C1480.2 163.141 1480.36 159.967 1481.21 156.536C1482.07 153.104 1483.41 150.224 1485.25 147.894C1487.08 145.564 1489.33 143.947 1491.99 143.044C1494.66 142.126 1497.67 142.082 1501 142.914C1504.36 143.749 1506.99 145.195 1508.9 147.254C1510.83 149.301 1512.06 151.784 1512.59 154.701C1513.13 157.623 1512.97 160.799 1512.12 164.231C1511.26 167.662 1509.91 170.541 1508.06 172.867C1506.23 175.197 1503.98 176.821 1501.31 177.739C1498.66 178.646 1495.66 178.682 1492.31 177.847ZM1493.12 174.563C1495.75 175.217 1498.08 175.164 1500.14 174.405C1502.19 173.647 1503.91 172.312 1505.31 170.401C1506.73 168.479 1507.79 166.121 1508.49 163.326C1509.18 160.531 1509.35 157.96 1509 155.613C1508.66 153.269 1507.76 151.281 1506.3 149.649C1504.84 148.017 1502.81 146.866 1500.19 146.197C1497.56 145.544 1495.23 145.599 1493.2 146.361C1491.16 147.124 1489.43 148.466 1488.01 150.388C1486.61 152.299 1485.56 154.649 1484.85 157.44C1484.14 160.231 1483.95 162.798 1484.29 165.142C1484.65 167.474 1485.55 169.463 1487.01 171.111C1488.46 172.744 1490.5 173.894 1493.12 174.563ZM1524.08 185.758C1521.73 185.174 1519.72 184.26 1518.03 183.016C1516.37 181.761 1515.1 180.258 1514.23 178.509C1513.38 176.763 1513.02 174.851 1513.14 172.77L1516.78 173.058C1516.8 175.371 1517.55 177.372 1519.04 179.063C1520.54 180.738 1522.54 181.887 1525.04 182.509C1526.68 182.919 1528.22 183.03 1529.65 182.842C1531.09 182.639 1532.3 182.149 1533.28 181.372C1534.27 180.595 1534.92 179.547 1535.25 178.227C1535.47 177.357 1535.5 176.581 1535.34 175.899C1535.18 175.2 1534.9 174.585 1534.49 174.054C1534.07 173.523 1533.6 173.05 1533.06 172.635C1532.52 172.205 1531.99 171.833 1531.46 171.519L1523.59 166.864C1522.64 166.314 1521.78 165.705 1521.03 165.039C1520.27 164.356 1519.65 163.616 1519.15 162.817C1518.68 162.006 1518.37 161.122 1518.23 160.163C1518.09 159.205 1518.16 158.167 1518.44 157.049C1518.91 155.155 1519.82 153.641 1521.15 152.506C1522.49 151.372 1524.11 150.647 1526.02 150.33C1527.93 150.014 1529.99 150.139 1532.19 150.703C1534.42 151.26 1536.32 152.152 1537.88 153.381C1539.45 154.614 1540.63 156.11 1541.41 157.871C1542.19 159.617 1542.52 161.537 1542.4 163.633L1538.65 163.392C1538.78 161.875 1538.56 160.476 1537.99 159.196C1537.42 157.916 1536.55 156.826 1535.39 155.927C1534.25 155.016 1532.9 154.36 1531.35 153.958C1529.85 153.583 1528.44 153.504 1527.13 153.723C1525.84 153.93 1524.75 154.383 1523.85 155.082C1522.95 155.782 1522.36 156.69 1522.08 157.808C1521.8 158.942 1521.89 159.927 1522.34 160.765C1522.8 161.607 1523.45 162.336 1524.27 162.952C1525.1 163.572 1525.92 164.114 1526.73 164.579L1532.82 168.148C1533.45 168.504 1534.18 168.975 1535.01 169.56C1535.86 170.133 1536.63 170.854 1537.34 171.723C1538.07 172.58 1538.59 173.6 1538.9 174.783C1539.22 175.967 1539.18 177.358 1538.78 178.957C1538.39 180.51 1537.74 181.822 1536.81 182.894C1535.9 183.97 1534.78 184.787 1533.45 185.348C1532.14 185.911 1530.69 186.225 1529.09 186.289C1527.5 186.372 1525.83 186.195 1524.08 185.758ZM1541.77 189.423L1550.13 155.887L1553.55 156.739L1545.2 190.275L1541.77 189.423ZM1561.1 194.234L1568.63 163.982L1556.92 161.065L1557.74 157.782L1584.59 164.468L1583.77 167.751L1572.06 164.835L1564.52 195.087L1561.1 194.234ZM1580.44 199.05L1588.79 165.513L1592.21 166.366L1583.86 199.902L1580.44 199.05ZM1599.37 203.763L1596.17 167.351L1599.73 168.238L1602.57 200.43L1620.25 173.347L1623.81 174.234L1603.91 204.894L1599.37 203.763ZM1618.95 208.64L1627.3 175.104L1648.26 180.323L1647.45 183.606L1629.91 179.24L1627.02 190.838L1641.76 194.508L1640.95 197.792L1626.2 194.122L1623.19 206.208L1640.73 210.575L1639.91 213.859L1618.95 208.64Z" fill="black"/>
<rect x="159" y="311" width="194" height="82" rx="41" fill="white"/>
<path d="M203.238 370V335.44H206.766V366.616H223.182V370H203.238ZM240.329 370.72C236.889 370.72 233.985 369.96 231.617 368.44C229.249 366.904 227.457 364.784 226.241 362.08C225.025 359.376 224.417 356.256 224.417 352.72C224.417 349.184 225.025 346.064 226.241 343.36C227.457 340.656 229.249 338.544 231.617 337.024C233.985 335.488 236.889 334.72 240.329 334.72C243.785 334.72 246.689 335.488 249.041 337.024C251.409 338.544 253.201 340.656 254.417 343.36C255.649 346.064 256.265 349.184 256.265 352.72C256.265 356.256 255.649 359.376 254.417 362.08C253.201 364.784 251.409 366.904 249.041 368.44C246.689 369.96 243.785 370.72 240.329 370.72ZM240.329 367.336C243.033 367.336 245.289 366.72 247.097 365.488C248.905 364.256 250.257 362.544 251.153 360.352C252.065 358.144 252.521 355.6 252.521 352.72C252.521 349.84 252.065 347.304 251.153 345.112C250.257 342.92 248.905 341.208 247.097 339.976C245.289 338.744 243.033 338.12 240.329 338.104C237.625 338.104 235.377 338.72 233.585 339.952C231.793 341.184 230.441 342.904 229.529 345.112C228.633 347.304 228.177 349.84 228.161 352.72C228.145 355.6 228.585 358.136 229.481 360.328C230.393 362.504 231.753 364.216 233.561 365.464C235.369 366.696 237.625 367.32 240.329 367.336ZM268.402 370L256.498 335.44H260.17L270.706 365.992L281.314 335.44H284.986L273.082 370H268.402ZM288.587 370V335.44H310.187V338.824H292.115V350.776H307.307V354.16H292.115V366.616H310.187V370H288.587Z" fill="black"/>
<path d="M941.404 210.837C938.825 208.258 934.165 205.961 929.014 204.779C934.157 203.605 938.818 201.308 941.404 198.722C947.514 192.627 946.704 181.916 937.68 172.893C928.94 164.153 917.947 163.06 911.845 169.162C909.266 171.741 906.969 176.401 905.787 181.552C904.613 176.409 902.309 171.741 899.73 169.162C893.627 163.06 882.924 163.863 873.894 172.893C865.16 181.627 864.06 192.627 870.163 198.729C872.742 201.308 877.402 203.605 882.553 204.787C877.409 205.961 872.749 208.258 870.163 210.844C864.06 216.946 864.871 227.657 873.894 236.68C882.635 245.421 893.627 246.513 899.73 240.411C902.309 237.832 904.605 233.172 905.787 228.021C906.961 233.164 909.266 237.832 911.845 240.411C917.947 246.513 928.657 245.703 937.68 236.68C946.414 227.932 947.514 216.946 941.404 210.837Z" fill="#0E0E0E"/>
<g clip-path="url(#clip1_529_3558)">
<path d="M1378.05 149.542C1394.15 151.917 1410 134.806 1413.47 111.323C1416.94 87.8393 1406.7 66.877 1390.6 64.5018C1374.51 62.1266 1358.65 79.2381 1355.19 102.721C1351.72 126.204 1361.96 147.167 1378.05 149.542Z" fill="#FF9CDD"/>
<path d="M1379.73 142.907C1392.01 144.719 1404.33 130.152 1407.25 110.369C1410.17 90.5871 1402.58 73.0812 1390.3 71.2688C1378.02 69.4565 1365.7 84.024 1362.78 103.806C1359.86 123.588 1367.45 141.094 1379.73 142.907Z" fill="white" stroke="#0C0D0D" stroke-width="2.09662" stroke-miterlimit="10"/>
<path d="M1396.7 85.305C1391.07 84.475 1385.45 89.114 1382.03 96.5106L1393.3 108.311L1379.06 116.092C1380.15 124.293 1384.23 130.479 1389.91 131.317C1397.71 132.469 1405.57 123.109 1407.44 110.398C1409.32 97.6873 1404.5 86.4563 1396.7 85.305Z" fill="black"/>
<path d="M1345.09 144.677C1360.7 146.98 1376.16 129.81 1379.62 106.327C1383.09 82.8439 1373.25 61.94 1357.64 59.6369C1342.04 57.3338 1326.58 74.5037 1323.11 97.9869C1319.65 121.47 1329.49 142.374 1345.09 144.677Z" fill="#FF9CDD"/>
<path d="M1346.11 137.945C1358.39 139.757 1370.71 125.19 1373.63 105.407C1376.55 85.6251 1368.96 68.1193 1356.68 66.3069C1344.4 64.4946 1332.08 79.0621 1329.16 98.8443C1326.24 118.627 1333.83 136.132 1346.11 137.945Z" fill="white" stroke="#0C0D0D" stroke-width="2.09662" stroke-miterlimit="10"/>
<path d="M1363.08 80.3436C1357.46 79.5136 1351.84 84.1526 1348.42 91.5492L1359.68 103.35L1345.44 111.131C1346.53 119.331 1350.61 125.518 1356.29 126.356C1364.09 127.507 1371.95 118.147 1373.82 105.437C1375.7 92.7258 1370.88 81.4949 1363.08 80.3436Z" fill="black"/>
</g>
<rect x="713.703" y="99.3466" width="212" height="81" rx="40.5" transform="rotate(-6.28424 713.703 99.3466)" stroke="black"/>
<path d="M792.959 109.778L796.401 141.029L792.488 141.46L789.047 110.209L792.959 109.778ZM764.144 126.569C764.612 130.815 768.086 133.427 772.237 132.97C776.484 132.502 779.307 129.197 778.839 124.951C778.382 120.8 774.907 118.189 770.661 118.656C766.51 119.113 763.687 122.418 764.144 126.569ZM782.656 124.531C783.339 130.733 779.004 135.653 772.61 136.357C766.265 137.056 761.01 133.192 760.327 126.989C759.649 120.835 763.942 115.967 770.288 115.269C776.681 114.565 781.978 118.376 782.656 124.531ZM773.593 150.978L798.498 148.235L798.85 151.432L770.032 154.605L768.519 140.864L772.431 140.433L773.593 150.978ZM808.313 113.303L810.856 136.395C814.954 135.895 819.456 135.11 824.45 133.546L825.205 136.891C819.553 138.624 814.665 139.404 810.037 139.914L807.317 140.213L804.401 113.733L808.313 113.303ZM834.268 105.181L838.038 104.766L842.745 147.515L838.976 147.93L836.543 125.84L830.484 126.507L832.68 146.451L829.007 146.855L824.64 107.207L828.314 106.802L830.127 123.263L836.186 122.595L834.268 105.181ZM873.661 120.449L872.046 123.765C866.943 122.589 862.631 119.394 860.165 114.981C858.851 120.148 855.327 124.544 850.474 126.962L848.134 124.129C854.365 121.076 858.124 114.868 857.431 108.57L856.974 104.419L860.886 103.988L861.343 108.139C862.01 114.198 867.084 119.048 873.661 120.449ZM860.174 132.606L861.183 141.766L881.222 139.56L880.213 130.399L860.174 132.606ZM857.713 145.336L856.016 129.925L883.689 126.877L885.386 142.288L857.713 145.336ZM876.829 100.542L880.741 100.111L883.421 124.444L879.508 124.875L876.829 100.542Z" fill="black"/>
<rect x="62.5" y="396.5" width="212" height="81" rx="40.5" stroke="black"/>
<path d="M126.266 436.856L124.394 439.88C120.218 438.2 117.242 435.032 115.706 431.144C114.314 435.368 111.338 438.824 107.066 440.6L105.146 437.72C110.618 435.464 113.786 430.232 113.786 424.808V424.328H106.01V421.16H113.786V415.976H117.53V421.16H125.21V424.328H117.53V424.808C117.53 429.896 120.794 434.792 126.266 436.856ZM112.202 447.416V444.2H141.146V458.552H137.21V447.416H112.202ZM137.354 415.544H141.146V441.944H137.354V430.232H131.93V441.656H128.234V416.264H131.93V427.016H137.354V415.544ZM180.358 415.544H184.294V440.168H180.358V415.544ZM156.454 442.472H184.294V457.976H156.454V442.472ZM180.454 445.592H160.294V454.808H180.454V445.592ZM161.158 417.8C167.686 417.8 172.438 421.88 172.438 427.832C172.438 433.784 167.686 437.864 161.158 437.864C154.678 437.864 149.974 433.784 149.974 427.832C149.974 421.88 154.678 417.8 161.158 417.8ZM161.158 421.064C156.886 421.064 153.814 423.896 153.814 427.832C153.814 431.816 156.886 434.6 161.158 434.6C165.478 434.6 168.598 431.816 168.598 427.832C168.598 423.896 165.478 421.064 161.158 421.064ZM194.994 418.232H214.866C214.866 429.176 207.282 436.904 194.61 440.36L193.074 437.24C203.586 434.408 209.874 428.744 210.642 421.448H194.994V418.232ZM203.298 445.112V454.76H222.642V445.112H203.298ZM199.41 457.928V441.944H226.53V457.928H199.41ZM232.914 426.008V429.272H226.53V439.928H222.594V415.448H226.53V426.008H232.914Z" fill="black"/>
</g>
<defs>
<clipPath id="clip0_529_3558">
<rect width="1920" height="480" fill="white"/>
</clipPath>
<clipPath id="clip1_529_3558">
<rect width="91.3367" height="85.9613" fill="white" transform="translate(1329.39 55.4668) rotate(8.39531)"/>
</clipPath>
</defs>
</svg>
