<svg width="360" height="270" viewBox="0 0 360 270" fill="none" xmlns="http://www.w3.org/2000/svg">
<g clip-path="url(#clip0_569_3772)">
<rect x="31" y="212" width="66.1411" height="27.4282" rx="13.7141" fill="white"/>
<path d="M46.1702 231.714V219.989H47.3671V230.566H52.9365V231.714H46.1702ZM58.7536 231.959C57.5865 231.959 56.6013 231.701 55.7979 231.185C54.9945 230.664 54.3866 229.945 53.974 229.027C53.5615 228.11 53.3552 227.052 53.3552 225.852C53.3552 224.652 53.5615 223.594 53.974 222.676C54.3866 221.759 54.9945 221.042 55.7979 220.527C56.6013 220.006 57.5865 219.745 58.7536 219.745C59.9261 219.745 60.9113 220.006 61.7092 220.527C62.5126 221.042 63.1206 221.759 63.5331 222.676C63.9511 223.594 64.1601 224.652 64.1601 225.852C64.1601 227.052 63.9511 228.11 63.5331 229.027C63.1206 229.945 62.5126 230.664 61.7092 231.185C60.9113 231.701 59.9261 231.959 58.7536 231.959ZM58.7536 230.811C59.6709 230.811 60.4363 230.602 61.0497 230.184C61.6631 229.766 62.1218 229.185 62.4258 228.441C62.7352 227.692 62.8899 226.829 62.8899 225.852C62.8899 224.875 62.7352 224.014 62.4258 223.271C62.1218 222.527 61.6631 221.946 61.0497 221.528C60.4363 221.11 59.6709 220.899 58.7536 220.893C57.8362 220.893 57.0735 221.102 56.4656 221.52C55.8576 221.938 55.3989 222.522 55.0895 223.271C54.7855 224.014 54.6308 224.875 54.6254 225.852C54.62 226.829 54.7692 227.689 55.0732 228.433C55.3826 229.171 55.844 229.752 56.4574 230.175C57.0708 230.593 57.8362 230.805 58.7536 230.811ZM68.2778 231.714L64.2392 219.989H65.485L69.0595 230.355L72.6584 219.989H73.9042L69.8656 231.714H68.2778ZM75.1258 231.714V219.989H82.4539V221.137H76.3227V225.192H81.4768V226.34H76.3227V230.566H82.4539V231.714H75.1258Z" fill="black"/>
<rect x="159.733" y="241.171" width="128.141" height="27.4282" rx="13.7141" fill="white"/>
<path d="M175.036 260.885V249.16H176.233V260.885H175.036ZM178.511 252.092V249.16H179.708V252.092H178.511ZM182.157 260.885V249.16H183.256L187.864 259.021L192.449 249.16H193.564V260.877H192.424V251.831L188.247 260.885H187.474L183.305 251.831V260.885H182.157ZM199.109 260.885V249.16H200.314L206.771 258.768V249.16H207.976V260.885H206.771L200.314 251.269V260.885H199.109ZM215.004 261.13C213.837 261.13 212.852 260.872 212.049 260.356C211.245 259.835 210.637 259.116 210.225 258.198C209.812 257.281 209.606 256.222 209.606 255.023C209.606 253.823 209.812 252.765 210.225 251.847C210.637 250.93 211.245 250.213 212.049 249.698C212.852 249.177 213.837 248.916 215.004 248.916C216.177 248.916 217.162 249.177 217.96 249.698C218.763 250.213 219.371 250.93 219.784 251.847C220.202 252.765 220.411 253.823 220.411 255.023C220.411 256.222 220.202 257.281 219.784 258.198C219.371 259.116 218.763 259.835 217.96 260.356C217.162 260.872 216.177 261.13 215.004 261.13ZM215.004 259.981C215.922 259.981 216.687 259.772 217.3 259.354C217.914 258.937 218.372 258.356 218.676 257.612C218.986 256.863 219.141 256 219.141 255.023C219.141 254.046 218.986 253.185 218.676 252.442C218.372 251.698 217.914 251.117 217.3 250.699C216.687 250.281 215.922 250.07 215.004 250.064C214.087 250.064 213.324 250.273 212.716 250.691C212.108 251.109 211.65 251.693 211.34 252.442C211.036 253.185 210.881 254.046 210.876 255.023C210.871 256 211.02 256.86 211.324 257.604C211.633 258.342 212.095 258.923 212.708 259.346C213.321 259.764 214.087 259.976 215.004 259.981ZM224.842 260.885V250.308H220.746V249.16H230.134V250.308H226.039V260.885H224.842ZM234.37 260.885V249.16H235.567V259.737H241.136V260.885H234.37ZM241.71 260.885L245.749 249.16H247.337L251.375 260.885H250.129L246.294 249.828H246.767L242.956 260.885H241.71ZM243.51 258.044V256.92H249.568V258.044H243.51ZM254.994 260.885V250.308H250.898V249.16H260.286V250.308H256.191V260.885H254.994ZM261.592 260.885V249.16H268.92V250.308H262.789V254.363H267.943V255.511H262.789V259.737H268.92V260.885H261.592ZM271.107 260.885V259.493H272.5V260.885H271.107Z" fill="black"/>
<rect x="123.664" y="186.889" width="74.1411" height="27.4282" rx="13.7141" transform="rotate(25.4053 123.664 186.889)" fill="#2ED06E"/>
<path d="M130.928 212.163L132.898 200.119L134.024 200.653L132.349 210.575L138.963 203.008L140.099 203.539L138.424 213.461L145.041 205.886L146.174 206.424L138.092 215.565L137.003 215.048L138.628 205.175L132.016 212.68L130.928 212.163ZM146.313 219.741C145.259 219.24 144.479 218.584 143.975 217.774C143.473 216.958 143.232 216.048 143.253 215.042C143.274 214.037 143.542 212.992 144.056 211.908C144.571 210.825 145.211 209.957 145.978 209.305C146.744 208.654 147.601 208.267 148.547 208.146C149.497 208.02 150.498 208.207 151.553 208.708C152.612 209.211 153.39 209.869 153.887 210.682C154.392 211.493 154.633 212.401 154.612 213.406C154.596 214.414 154.331 215.46 153.816 216.544C153.302 217.627 152.659 218.494 151.888 219.143C151.121 219.795 150.264 220.184 149.314 220.31C148.372 220.433 147.372 220.244 146.313 219.741ZM146.805 218.703C147.634 219.097 148.415 219.237 149.148 219.122C149.882 219.008 150.545 218.68 151.139 218.139C151.74 217.595 152.25 216.881 152.669 215.999C153.088 215.116 153.318 214.273 153.357 213.468C153.402 212.666 153.236 211.945 152.862 211.304C152.487 210.663 151.886 210.144 151.06 209.745C150.231 209.352 149.453 209.213 148.724 209.33C147.996 209.447 147.331 209.777 146.73 210.321C146.137 210.862 145.628 211.573 145.204 212.453C144.78 213.334 144.545 214.175 144.501 214.977C144.464 215.777 144.631 216.499 145.004 217.145C145.378 217.785 145.979 218.305 146.805 218.703ZM152.774 222.539L157.804 211.948L161.894 213.89C161.997 213.939 162.11 213.999 162.232 214.069C162.363 214.137 162.488 214.214 162.609 214.302C163.123 214.648 163.499 215.064 163.738 215.55C163.983 216.033 164.095 216.549 164.075 217.098C164.059 217.65 163.92 218.203 163.657 218.757C163.277 219.556 162.737 220.15 162.036 220.538C161.334 220.926 160.556 221.01 159.699 220.789L159.282 220.699L155.766 219.029L153.855 223.052L152.774 222.539ZM159.188 225.585L159.146 220.283L160.372 220.378L160.431 226.175L159.188 225.585ZM156.255 218L159.234 219.414C159.322 219.456 159.428 219.5 159.55 219.546C159.672 219.592 159.796 219.63 159.92 219.659C160.32 219.753 160.688 219.744 161.023 219.633C161.363 219.524 161.662 219.345 161.919 219.094C162.181 218.846 162.39 218.558 162.546 218.229C162.702 217.901 162.794 217.556 162.82 217.197C162.854 216.834 162.806 216.487 162.675 216.154C162.55 215.824 162.324 215.534 161.998 215.283C161.897 215.205 161.789 215.135 161.674 215.075C161.561 215.009 161.46 214.955 161.372 214.913L158.393 213.498L156.255 218ZM162.054 226.946L167.084 216.355L168.165 216.869L165.79 221.87L172.998 219.164L174.38 219.821L167.017 222.588L169.755 230.604L168.343 229.933L165.65 222.164L163.135 227.46L162.054 226.946Z" fill="white"/>
<path d="M239.268 191.512L250.117 185.505L251.296 186.567L246.448 197.981L245.522 197.148L250.075 186.366L250.426 186.682L240.193 192.346L239.268 191.512ZM242.507 190.605L243.259 189.77L247.759 193.826L247.007 194.66L242.507 190.605ZM249.136 200.404L256.217 192.546L253.174 189.805L253.942 188.952L260.917 195.236L260.148 196.089L257.106 193.347L250.026 201.205L249.136 200.404ZM259.457 210.032C258.59 209.251 258.031 208.4 257.779 207.479C257.531 206.554 257.561 205.613 257.868 204.655C258.176 203.697 258.731 202.773 259.534 201.882C260.337 200.991 261.199 200.342 262.12 199.937C263.04 199.532 263.972 199.406 264.914 199.561C265.859 199.712 266.766 200.177 267.633 200.959C268.645 201.871 269.237 202.876 269.41 203.974C269.586 205.068 269.4 206.157 268.853 207.243L267.733 206.661C268.169 205.804 268.329 204.958 268.212 204.122C268.096 203.287 267.646 202.517 266.864 201.812C266.183 201.198 265.476 200.842 264.745 200.746C264.013 200.649 263.282 200.776 262.551 201.125C261.827 201.474 261.134 202.008 260.472 202.727C259.814 203.449 259.349 204.188 259.077 204.944C258.809 205.703 258.761 206.446 258.933 207.171C259.113 207.896 259.544 208.565 260.225 209.179C261.008 209.884 261.821 210.251 262.664 210.28C263.511 210.305 264.336 210.059 265.139 209.54L265.834 210.594C264.811 211.251 263.745 211.55 262.635 211.493C261.528 211.431 260.469 210.944 259.457 210.032ZM264.875 214.585L272.723 205.875L273.613 206.676L266.532 214.533L270.67 218.262L269.901 219.115L264.875 214.585ZM270.933 220.044L278.781 211.333L284.225 216.239L283.457 217.092L278.902 212.987L276.188 216L280.017 219.45L279.248 220.303L275.419 216.853L272.59 219.992L277.145 224.096L276.377 224.949L270.933 220.044ZM277.227 225.716L288.076 219.709L289.256 220.771L284.407 232.185L283.482 231.351L288.035 220.57L288.386 220.886L278.153 226.55L277.227 225.716ZM280.466 224.809L281.219 223.974L285.719 228.03L284.967 228.864L280.466 224.809ZM285.5 233.17L293.348 224.459L294.244 225.266L292.609 236.726L299.041 229.588L299.936 230.395L292.087 239.105L291.192 238.299L292.832 226.833L286.395 233.976L285.5 233.17ZM293.903 240.741L301.751 232.031L302.641 232.832L294.792 241.542L293.903 240.741ZM296.605 243.176L304.454 234.466L305.349 235.273L303.714 246.733L310.146 239.595L311.041 240.402L303.193 249.112L302.297 248.305L303.938 236.839L297.5 243.983L296.605 243.176ZM308.214 253.965C307.601 253.413 307.145 252.808 306.845 252.151C306.546 251.494 306.401 250.812 306.41 250.104C306.423 249.4 306.59 248.688 306.91 247.968C307.234 247.244 307.706 246.537 308.328 245.848C309.149 244.936 310.022 244.284 310.947 243.889C311.88 243.495 312.811 243.377 313.742 243.536C314.673 243.696 315.553 244.149 316.384 244.898C317.312 245.734 317.87 246.631 318.058 247.59C318.254 248.548 318.138 249.496 317.71 250.433L316.618 249.844C316.909 249.141 316.979 248.434 316.831 247.723C316.687 247.015 316.292 246.371 315.646 245.79C314.969 245.171 314.264 244.814 313.532 244.718C312.805 244.617 312.075 244.742 311.344 245.091C310.62 245.44 309.929 245.976 309.271 246.698C308.613 247.42 308.148 248.159 307.876 248.915C307.612 249.671 307.566 250.411 307.738 251.136C307.914 251.857 308.341 252.527 309.019 253.145C309.644 253.708 310.269 254.052 310.894 254.177C311.52 254.303 312.141 254.234 312.757 253.971C313.378 253.712 313.98 253.287 314.565 252.695L312.556 250.885L313.243 250.123L316.183 252.772C316.111 252.876 316.028 252.98 315.934 253.085C315.847 253.189 315.784 253.264 315.744 253.308C315.035 254.095 314.26 254.671 313.418 255.038C312.58 255.4 311.715 255.505 310.823 255.352C309.938 255.198 309.069 254.736 308.214 253.965Z" fill="black"/>
<path d="M266.104 185.554L273.953 176.843L274.842 177.645L266.994 186.355L266.104 185.554ZM274.573 181.347L276.535 179.17L277.424 179.971L275.462 182.148L274.573 181.347ZM271.394 190.32L279.243 181.61L280.06 182.346L276.883 192.756L286.889 188.499L287.718 189.246L279.874 197.951L279.028 197.187L285.083 190.467L275.919 194.397L275.344 193.88L278.308 184.363L272.247 191.089L271.394 190.32ZM287.315 204.995C286.702 204.443 286.246 203.838 285.947 203.181C285.647 202.524 285.502 201.842 285.512 201.134C285.525 200.43 285.691 199.718 286.011 198.998C286.335 198.274 286.808 197.567 287.429 196.877C288.25 195.966 289.123 195.313 290.048 194.919C290.981 194.525 291.913 194.407 292.843 194.566C293.774 194.725 294.655 195.179 295.485 195.928C296.413 196.763 296.971 197.661 297.159 198.619C297.355 199.578 297.239 200.525 296.811 201.462L295.72 200.874C296.01 200.17 296.081 199.463 295.932 198.752C295.788 198.045 295.393 197.401 294.748 196.819C294.07 196.201 293.365 195.844 292.634 195.747C291.906 195.647 291.176 195.771 290.445 196.121C289.722 196.47 289.031 197.005 288.373 197.728C287.714 198.45 287.249 199.189 286.977 199.945C286.713 200.7 286.667 201.441 286.839 202.166C287.015 202.887 287.442 203.557 288.12 204.175C288.745 204.738 289.37 205.082 289.996 205.207C290.621 205.332 291.242 205.263 291.859 205.001C292.479 204.742 293.082 204.316 293.666 203.725L291.658 201.915L292.344 201.153L295.284 203.802C295.213 203.906 295.13 204.01 295.035 204.115C294.948 204.219 294.885 204.294 294.845 204.338C294.137 205.124 293.361 205.701 292.519 206.067C291.681 206.43 290.816 206.535 289.924 206.381C289.04 206.227 288.17 205.765 287.315 204.995ZM295.881 212.714C295.014 211.932 294.455 211.081 294.203 210.161C293.955 209.236 293.985 208.294 294.293 207.337C294.601 206.379 295.156 205.455 295.959 204.563C296.762 203.672 297.624 203.024 298.544 202.618C299.465 202.213 300.396 202.088 301.338 202.242C302.284 202.393 303.19 202.859 304.057 203.64C304.928 204.425 305.486 205.278 305.73 206.2C305.981 207.12 305.953 208.06 305.646 209.017C305.342 209.979 304.789 210.905 303.986 211.796C303.183 212.687 302.319 213.334 301.394 213.736C300.474 214.141 299.541 214.268 298.595 214.118C297.657 213.967 296.753 213.499 295.881 212.714ZM296.65 211.861C297.331 212.475 298.04 212.832 298.775 212.932C299.511 213.032 300.241 212.908 300.964 212.559C301.695 212.209 302.388 211.672 303.042 210.946C303.696 210.22 304.157 209.477 304.425 208.718C304.697 207.962 304.745 207.223 304.569 206.502C304.393 205.781 303.967 205.111 303.289 204.493C302.607 203.879 301.901 203.524 301.169 203.427C300.438 203.331 299.706 203.457 298.975 203.807C298.251 204.156 297.561 204.691 296.903 205.414C296.244 206.136 295.779 206.875 295.507 207.631C295.243 208.386 295.197 209.127 295.369 209.852C295.545 210.573 295.972 211.243 296.65 211.861ZM304.636 220.602C303.769 219.821 303.21 218.97 302.958 218.049C302.71 217.124 302.74 216.183 303.047 215.225C303.355 214.267 303.91 213.343 304.713 212.452C305.516 211.56 306.378 210.912 307.299 210.507C308.219 210.101 309.151 209.976 310.093 210.131C311.038 210.281 311.945 210.747 312.812 211.529C313.683 212.313 314.24 213.167 314.484 214.088C314.736 215.009 314.708 215.948 314.4 216.906C314.097 217.867 313.543 218.793 312.74 219.684C311.937 220.576 311.073 221.222 310.149 221.624C309.228 222.029 308.295 222.157 307.349 222.006C306.411 221.855 305.507 221.387 304.636 220.602ZM305.404 219.749C306.086 220.363 306.794 220.72 307.53 220.82C308.265 220.92 308.995 220.796 309.719 220.447C310.45 220.098 311.143 219.56 311.797 218.834C312.451 218.108 312.912 217.366 313.18 216.606C313.452 215.85 313.5 215.111 313.324 214.39C313.148 213.669 312.721 213 312.043 212.382C311.362 211.767 310.655 211.412 309.924 211.316C309.192 211.219 308.461 211.346 307.73 211.695C307.006 212.044 306.315 212.58 305.657 213.302C304.999 214.024 304.534 214.763 304.262 215.519C303.998 216.275 303.951 217.015 304.124 217.74C304.3 218.461 304.727 219.131 305.404 219.749ZM310.027 225.131L317.876 216.421L320.519 218.803C320.612 218.886 320.768 219.03 320.986 219.234C321.208 219.441 321.409 219.652 321.589 219.865C322.167 220.554 322.498 221.298 322.582 222.097C322.666 222.896 322.541 223.704 322.206 224.52C321.872 225.337 321.371 226.117 320.702 226.859C320.034 227.601 319.311 228.18 318.533 228.597C317.755 229.015 316.965 229.223 316.161 229.222C315.358 229.222 314.584 228.97 313.839 228.467C313.615 228.31 313.385 228.131 313.148 227.932C312.914 227.729 312.755 227.589 312.671 227.513L310.027 225.131ZM311.715 225.107L313.439 226.66C313.605 226.809 313.786 226.965 313.982 227.128C314.187 227.29 314.37 227.419 314.533 227.514C315.121 227.883 315.716 228.046 316.317 228.004C316.922 227.964 317.515 227.768 318.097 227.415C318.681 227.058 319.235 226.589 319.759 226.008C320.286 225.424 320.696 224.822 320.991 224.203C321.285 223.584 321.419 222.974 321.391 222.372C321.364 221.77 321.138 221.198 320.714 220.655C320.602 220.503 320.451 220.334 320.261 220.148C320.078 219.961 319.908 219.797 319.751 219.656L318.027 218.102L311.715 225.107Z" fill="black"/>
<path d="M259.199 170.421L254.479 175.659C253.455 176.796 251.704 176.887 250.567 175.863C245.718 171.493 238.246 171.882 233.876 176.731L232.652 178.09C227.606 183.69 228.055 192.32 233.655 197.366L307.135 263.576C312.735 268.622 321.365 268.173 326.41 262.573L327.083 261.826C331.757 256.639 331.341 248.645 326.154 243.971C324.938 242.875 324.84 241.002 325.936 239.786L330.526 234.691C335.367 229.319 334.937 221.039 329.564 216.198L277.692 169.459C272.32 164.618 264.04 165.048 259.199 170.421Z" stroke="black"/>
<circle cx="238.104" cy="224.887" r="13.9098" transform="rotate(-90 238.104 224.887)" fill="#2ED06E"/>
<rect x="151" y="185.343" width="87.1411" height="27.4282" rx="13.7141" transform="rotate(-26.1042 151 185.343)" fill="white"/>
<path d="M178.013 184.413L176.702 181.737L170.238 184.904L171.55 187.58L178.013 184.413ZM177.414 180.191L179.671 184.798L170.853 189.118L168.596 184.512L177.414 180.191ZM173.914 192.406L175.268 195.17L183.136 191.315L183.616 192.294L174.549 196.737L172.715 192.993L173.914 192.406ZM170.033 191.37L181.952 185.53L182.424 186.495L177.16 189.074L178.457 191.721L177.258 192.309L175.961 189.662L170.506 192.335L170.033 191.37ZM185.305 178.682L185.885 179.867C187.003 182.148 189.1 183.949 191.415 184.084L191.114 185.32C189.469 185.183 187.875 184.223 186.605 182.778C187.033 184.799 186.834 186.8 185.934 188.257L184.766 187.723C186.056 185.731 185.912 182.846 184.73 180.433L184.149 179.248L181.663 180.466L181.183 179.487L187.164 176.556L187.644 177.536L185.305 178.682ZM189.889 179.156L187.725 174.74L188.866 174.181L194.813 186.318L193.672 186.877L190.369 180.136L188.205 181.196L187.725 180.217L189.889 179.156ZM190.207 173.143L191.362 172.577L197.79 185.694L196.634 186.26L190.207 173.143ZM201.375 178.95C202.384 178.456 202.707 177.264 202.133 176.094C201.575 174.954 200.435 174.478 199.426 174.973C198.402 175.474 198.094 176.659 198.653 177.8C199.226 178.97 200.351 179.452 201.375 178.95ZM198.932 173.964C200.555 173.168 202.341 173.816 203.201 175.571C204.075 177.355 203.485 179.149 201.862 179.945C200.239 180.74 198.46 180.107 197.586 178.323C196.726 176.568 197.308 174.759 198.932 173.964ZM197.696 169.963L198.606 171.82L201.268 170.516L201.748 171.496L195.241 174.684L194.76 173.704L197.422 172.4L196.512 170.543L197.696 169.963ZM203.63 166.566L204.786 166L211.213 179.117L210.058 179.683L206.826 173.088L205.144 173.912L208.068 179.878L206.942 180.43L200.973 168.249L202.099 167.697L204.664 172.932L206.346 172.108L203.63 166.566ZM218.114 163.005L214.883 164.588C215.074 167.052 213.758 169.437 211.2 171.543L210.281 170.778C213.118 168.463 214.179 166.003 213.381 163.819L208.819 166.054L208.339 165.075L214.203 162.201C214.418 162.64 214.574 163.071 214.687 163.524L217.656 162.069L216.724 160.168L217.938 159.573L221.22 166.271L220.006 166.865L219.34 165.505L215.918 167.182L215.459 166.246L218.881 164.57L218.114 163.005ZM216.597 175.155L224.274 171.393L224.74 172.344L215.878 176.686L214.223 173.308L221.447 169.768L220.787 168.423L213.534 171.977L213.061 171.012L221.514 166.87L223.09 170.087L215.851 173.634L216.597 175.155Z" fill="black"/>
<circle cx="139.379" cy="178.746" r="13.9098" transform="rotate(-90 139.379 178.746)" fill="#0E0E0E"/>
<path d="M135.515 178.553H143.265" stroke="#FEFCF2" stroke-width="0.772768"/>
<path d="M141.007 176.083L143.466 178.541L141.007 181" stroke="#FEFCF2" stroke-width="0.772768" stroke-linecap="round" stroke-linejoin="round"/>
<path d="M323.056 178.012C322.181 177.137 320.6 176.358 318.853 175.957C320.598 175.558 322.179 174.779 323.056 173.902C325.129 171.834 324.854 168.2 321.793 165.139C318.827 162.174 315.098 161.803 313.028 163.873C312.153 164.748 311.374 166.329 310.973 168.077C310.574 166.332 309.793 164.748 308.918 163.873C306.847 161.803 303.216 162.075 300.152 165.139C297.189 168.102 296.816 171.834 298.887 173.904C299.762 174.779 301.343 175.558 303.09 175.959C301.345 176.358 299.764 177.137 298.887 178.014C296.816 180.085 297.091 183.718 300.152 186.78C303.118 189.745 306.847 190.116 308.918 188.045C309.793 187.17 310.572 185.589 310.973 183.842C311.371 185.587 312.153 187.17 313.028 188.045C315.098 190.116 318.732 189.841 321.793 186.78C324.756 183.812 325.129 180.085 323.056 178.012Z" fill="#0E0E0E"/>
<rect x="89.8945" y="136.452" width="101.141" height="27.4282" rx="13.7141" fill="#2ED06E"/>
<path d="M109.751 156.411C108.584 156.411 107.599 156.153 106.795 155.637C105.992 155.116 105.384 154.397 104.971 153.48C104.559 152.562 104.353 151.504 104.353 150.304C104.353 149.104 104.559 148.046 104.971 147.129C105.384 146.211 105.992 145.495 106.795 144.979C107.599 144.458 108.584 144.197 109.751 144.197C111.113 144.197 112.226 144.547 113.089 145.248C113.952 145.942 114.544 146.876 114.864 148.049L113.643 148.366C113.393 147.438 112.946 146.702 112.3 146.16C111.654 145.617 110.804 145.345 109.751 145.345C108.834 145.345 108.071 145.554 107.463 145.972C106.855 146.39 106.396 146.974 106.087 147.723C105.783 148.467 105.626 149.327 105.615 150.304C105.609 151.281 105.759 152.141 106.063 152.885C106.372 153.629 106.833 154.212 107.447 154.636C108.066 155.054 108.834 155.263 109.751 155.263C110.804 155.263 111.654 154.991 112.3 154.448C112.946 153.9 113.393 153.165 113.643 152.242L114.864 152.559C114.544 153.732 113.952 154.668 113.089 155.369C112.226 156.063 111.113 156.411 109.751 156.411ZM116.661 156.167V144.442H121.188C121.302 144.442 121.43 144.447 121.571 144.458C121.717 144.463 121.864 144.48 122.01 144.507C122.624 144.599 123.142 144.813 123.566 145.15C123.994 145.481 124.317 145.899 124.535 146.404C124.757 146.909 124.868 147.468 124.868 148.081C124.868 148.966 124.635 149.734 124.168 150.385C123.701 151.037 123.034 151.447 122.165 151.615L121.75 151.713H117.858V156.167H116.661ZM123.761 156.167L121.449 151.395L122.597 150.955L125.137 156.167H123.761ZM117.858 150.573H121.155C121.253 150.573 121.367 150.567 121.497 150.556C121.628 150.546 121.755 150.527 121.88 150.499C122.282 150.413 122.61 150.247 122.865 150.003C123.126 149.758 123.319 149.468 123.443 149.132C123.574 148.795 123.639 148.445 123.639 148.081C123.639 147.717 123.574 147.367 123.443 147.031C123.319 146.689 123.126 146.396 122.865 146.151C122.61 145.907 122.282 145.742 121.88 145.655C121.755 145.628 121.628 145.611 121.497 145.606C121.367 145.595 121.253 145.59 121.155 145.59H117.858V150.573ZM126.934 156.167V144.442H134.262V145.59H128.131V149.644H133.285V150.793H128.131V155.018H134.262V156.167H126.934ZM135.407 156.167L139.446 144.442H141.034L145.072 156.167H143.827L139.992 145.109H140.464L136.653 156.167H135.407ZM137.207 153.325V152.201H143.265V153.325H137.207ZM148.691 156.167V145.59H144.595V144.442H153.984V145.59H149.888V156.167H148.691ZM155.452 156.167V144.442H156.649V156.167H155.452ZM162.07 156.167L158.032 144.442H159.277L162.852 154.807L166.451 144.442H167.697L163.658 156.167H162.07ZM168.918 156.167V144.442H176.246V145.59H170.115V149.644H175.269V150.793H170.115V155.018H176.246V156.167H168.918Z" fill="white"/>
<rect x="119.353" y="106.937" width="121.141" height="27.4282" rx="13.7141" fill="white"/>
<path d="M134.197 126.65V114.925H141.525V116.073H135.394V120.128H140.548V121.276H135.394V125.502H141.525V126.65H134.197ZM142.507 126.65L146.57 120.715L142.613 114.925H144.062L147.278 119.713L150.495 114.925H151.952L147.995 120.715L152.05 126.65H150.6L147.278 121.724L143.964 126.65H142.507ZM153.36 126.65V114.925H157.887C158.001 114.925 158.128 114.931 158.27 114.942C158.416 114.947 158.563 114.963 158.709 114.991C159.323 115.083 159.841 115.297 160.264 115.634C160.693 115.965 161.016 116.383 161.233 116.888C161.456 117.393 161.567 117.952 161.567 118.565C161.567 119.173 161.456 119.729 161.233 120.234C161.011 120.739 160.685 121.16 160.256 121.496C159.833 121.827 159.317 122.039 158.709 122.131C158.563 122.153 158.416 122.169 158.27 122.18C158.128 122.191 158.001 122.197 157.887 122.197H154.557V126.65H153.36ZM154.557 121.057H157.854C157.952 121.057 158.066 121.051 158.196 121.04C158.327 121.029 158.454 121.01 158.579 120.983C158.981 120.896 159.309 120.731 159.564 120.487C159.825 120.242 160.017 119.952 160.142 119.615C160.273 119.279 160.338 118.929 160.338 118.565C160.338 118.201 160.273 117.851 160.142 117.515C160.017 117.173 159.825 116.88 159.564 116.635C159.309 116.391 158.981 116.225 158.579 116.139C158.454 116.111 158.327 116.095 158.196 116.09C158.066 116.079 157.952 116.073 157.854 116.073H154.557V121.057ZM163.188 126.65V114.925H170.516V116.073H164.385V120.128H169.539V121.276H164.385V125.502H170.516V126.65H163.188ZM172.475 126.65V114.925H177.002C177.116 114.925 177.244 114.931 177.385 114.942C177.532 114.947 177.678 114.963 177.825 114.991C178.438 115.083 178.956 115.297 179.38 115.634C179.809 115.965 180.132 116.383 180.349 116.888C180.571 117.393 180.683 117.952 180.683 118.565C180.683 119.45 180.449 120.218 179.982 120.869C179.516 121.521 178.848 121.931 177.979 122.099L177.564 122.197H173.672V126.65H172.475ZM179.575 126.65L177.263 121.879L178.411 121.439L180.951 126.65H179.575ZM173.672 121.057H176.97C177.067 121.057 177.181 121.051 177.312 121.04C177.442 121.029 177.57 121.01 177.694 120.983C178.096 120.896 178.424 120.731 178.68 120.487C178.94 120.242 179.133 119.952 179.258 119.615C179.388 119.279 179.453 118.929 179.453 118.565C179.453 118.201 179.388 117.851 179.258 117.515C179.133 117.173 178.94 116.88 178.68 116.635C178.424 116.391 178.096 116.225 177.694 116.139C177.57 116.111 177.442 116.095 177.312 116.09C177.181 116.079 177.067 116.073 176.97 116.073H173.672V121.057ZM182.911 126.65V114.925H184.108V126.65H182.911ZM186.549 126.65V114.925H193.877V116.073H187.746V120.128H192.9V121.276H187.746V125.502H193.877V126.65H186.549ZM195.837 126.65V114.925H197.042L203.499 124.533V114.925H204.704V126.65H203.499L197.042 117.034V126.65H195.837ZM211.732 126.895C210.565 126.895 209.579 126.637 208.776 126.121C207.973 125.6 207.365 124.881 206.952 123.963C206.54 123.046 206.333 121.988 206.333 120.788C206.333 119.588 206.54 118.53 206.952 117.612C207.365 116.695 207.973 115.979 208.776 115.463C209.579 114.942 210.565 114.681 211.732 114.681C213.094 114.681 214.207 115.031 215.07 115.732C215.933 116.426 216.525 117.36 216.845 118.532L215.624 118.85C215.374 117.922 214.926 117.186 214.28 116.643C213.634 116.101 212.785 115.829 211.732 115.829C210.814 115.829 210.052 116.038 209.444 116.456C208.836 116.874 208.377 117.458 208.068 118.207C207.764 118.95 207.606 119.811 207.595 120.788C207.59 121.765 207.739 122.625 208.043 123.369C208.353 124.113 208.814 124.696 209.427 125.12C210.046 125.538 210.814 125.747 211.732 125.747C212.785 125.747 213.634 125.475 214.28 124.932C214.926 124.384 215.374 123.649 215.624 122.726L216.845 123.043C216.525 124.216 215.933 125.152 215.07 125.852C214.207 126.547 213.094 126.895 211.732 126.895ZM218.642 126.65V114.925H225.97V116.073H219.838V120.128H224.993V121.276H219.838V125.502H225.97V126.65H218.642Z" fill="black"/>
<rect x="73.8916" y="77.4209" width="87.1411" height="27.4282" rx="13.7141" fill="white"/>
<path d="M89.8619 87.5599C89.8619 88.8626 90.9042 89.7909 92.3535 89.7909C93.7865 89.7909 94.8288 88.8626 94.8288 87.5599C94.8288 86.2408 93.7865 85.3289 92.3535 85.3289C90.9042 85.3289 89.8619 86.2408 89.8619 87.5599ZM99.0465 86.5502H95.9524C96.0501 86.8596 96.099 87.2016 96.099 87.5599C96.099 87.8856 96.0501 88.2113 95.9687 88.5044H99.0465V86.5502ZM99.0465 89.5629H95.415C94.7311 90.3771 93.6563 90.8819 92.3535 90.8657C90.1713 90.8657 88.5917 89.4977 88.5917 87.5599C88.5917 85.5894 90.1713 84.2378 92.3535 84.2378C93.6237 84.2378 94.6985 84.71 95.3662 85.4917H99.0465V83.733H100.382V91.2239H99.0465V89.5629ZM92.3209 97.0864H100.936V98.1449H91.0019V94.4809H99.0628V93.0315H90.9693V91.973H100.382V95.4905H92.3209V97.0864ZM111.145 87.5273H114.027V83.7493H115.379V92.4453H114.027V88.6184H111.145V87.5273ZM111.959 90.8494L111.291 91.8916C109.663 91.3053 108.409 90.1003 107.774 88.6021C107.155 90.2957 105.803 91.6636 104.093 92.315L103.393 91.2565C105.575 90.4585 107.074 88.4881 107.074 86.3874V85.8825H103.817V84.8078H111.617V85.8825H108.409V86.3874C108.409 88.2601 109.842 90.1003 111.959 90.8494ZM110.558 97.2981C112.757 97.2981 114.092 96.6793 114.092 95.6208C114.092 94.5623 112.757 93.9272 110.558 93.9272C108.36 93.9272 107.025 94.5623 107.025 95.6208C107.025 96.6793 108.36 97.2981 110.558 97.2981ZM110.558 92.9012C113.555 92.9012 115.428 93.8946 115.428 95.6208C115.428 97.347 113.555 98.3403 110.558 98.3403C107.562 98.3403 105.689 97.347 105.689 95.6208C105.689 93.8946 107.562 92.9012 110.558 92.9012ZM126.94 90.8657L126.272 91.9079C124.643 91.3216 123.39 90.1166 122.738 88.6021C122.119 90.2794 120.784 91.6147 119.074 92.2499L118.374 91.1913C120.54 90.426 122.054 88.4718 122.054 86.4037V85.8174H118.797V84.7263H126.598V85.8174H123.39V86.4037C123.39 88.2764 124.823 90.1166 126.94 90.8657ZM120.589 94.3506V93.2758H130.359V98.3566H129.008V94.3506H120.589ZM129.008 83.733H130.359V92.4778H129.008V88.6347H126.158V87.5436H129.008V83.733ZM145.291 83.7493V94.4157H143.956V83.7493H145.291ZM134.95 88.3415C134.95 89.7909 136.025 90.8005 137.442 90.8005C138.891 90.8005 139.966 89.7909 139.966 88.3415C139.966 86.9248 138.891 85.9151 137.442 85.9151C136.025 85.9151 134.95 86.9248 134.95 88.3415ZM141.269 88.3415C141.269 90.4585 139.624 91.9567 137.442 91.9567C135.276 91.9567 133.648 90.4585 133.648 88.3415C133.648 86.2408 135.276 84.7589 137.442 84.7589C139.624 84.7589 141.269 86.2408 141.269 88.3415ZM137.23 96.9236H145.731V98.0146H135.895V93.3246H137.23V96.9236Z" fill="black"/>
<rect x="234" y="137" width="72.1411" height="27.4282" rx="13.7141" fill="#2ED06E"/>
<path d="M260.448 143.328V154.109H259.113V143.328H260.448ZM257.452 151.031L256.816 152.073C255.123 151.536 253.788 150.38 253.12 148.881C252.485 150.494 251.149 151.764 249.423 152.35L248.772 151.308C250.954 150.591 252.436 148.751 252.436 146.716V146.341H249.114V145.266H252.436V143.377H253.771V145.266H257.061V146.341H253.755V146.716C253.755 148.637 255.286 150.363 257.452 151.031ZM252.387 156.503H260.888V157.594H251.052V153.115H252.387V156.503ZM271.243 146.585H274.126V143.328H275.461V150.868H274.126V147.66H271.243V146.585ZM272.009 149.647L271.374 150.689C269.729 150.168 268.459 149.028 267.824 147.595C267.205 149.158 265.87 150.445 264.16 151.031L263.492 149.989C265.625 149.256 267.14 147.432 267.14 145.543V145.152H263.899V144.077H271.716V145.152H268.491V145.543C268.491 147.302 269.924 148.979 272.009 149.647ZM267.4 156.698H276.015V157.757H266.081V154.093H274.142V152.643H266.049V151.601H275.461V155.102H267.4V156.698ZM287.087 144.859V145.934H278.473V144.859H282.104V143.182H283.439V144.859H287.087ZM280.557 149.272C280.557 150.233 281.436 150.868 282.772 150.868C284.107 150.868 285.003 150.233 285.003 149.272C285.003 148.311 284.107 147.676 282.772 147.676C281.436 147.676 280.557 148.311 280.557 149.272ZM286.273 149.272C286.273 150.852 284.856 151.862 282.772 151.862C280.687 151.862 279.287 150.852 279.287 149.272C279.287 147.676 280.687 146.667 282.772 146.667C284.856 146.667 286.273 147.676 286.273 149.272ZM281.892 153.995V156.649H288.439V153.995H281.892ZM280.59 157.724V152.936H289.758V157.724H280.59ZM291.924 147.204V148.311H289.758V152.106H288.423V143.328H289.758V147.204H291.924Z" fill="white"/>
<g clip-path="url(#clip1_569_3772)">
<path d="M258.977 126.104C264.437 126.91 269.816 121.105 270.992 113.138C272.168 105.171 268.695 98.0588 263.235 97.253C257.775 96.4472 252.395 102.252 251.22 110.219C250.044 118.186 253.517 125.298 258.977 126.104Z" fill="#FF9CDD"/>
<path d="M259.546 123.852C263.712 124.467 267.892 119.525 268.883 112.814C269.873 106.102 267.299 100.163 263.132 99.5484C258.966 98.9335 254.786 103.876 253.795 110.587C252.805 117.299 255.379 123.238 259.546 123.852Z" fill="white" stroke="#0C0D0D" stroke-width="0.711307" stroke-miterlimit="10"/>
<path d="M265.302 104.31C263.394 104.029 261.487 105.603 260.327 108.112L264.15 112.116L259.319 114.755C259.687 117.538 261.071 119.636 262.998 119.921C265.645 120.311 268.311 117.136 268.947 112.824C269.583 108.511 267.949 104.701 265.302 104.31Z" fill="black"/>
<path d="M247.793 124.453C253.087 125.235 258.333 119.41 259.508 111.443C260.684 103.476 257.345 96.3836 252.051 95.6023C246.757 94.8209 241.512 100.646 240.336 108.613C239.16 116.58 242.499 123.672 247.793 124.453Z" fill="#FF9CDD"/>
<path d="M248.138 122.169C252.305 122.784 256.485 117.842 257.475 111.131C258.466 104.419 255.891 98.4801 251.725 97.8653C247.559 97.2504 243.379 102.193 242.388 108.904C241.398 115.615 243.972 121.555 248.138 122.169Z" fill="white" stroke="#0C0D0D" stroke-width="0.711307" stroke-miterlimit="10"/>
<path d="M253.897 102.627C251.989 102.346 250.082 103.92 248.922 106.429L252.745 110.433L247.914 113.072C248.281 115.854 249.666 117.953 251.593 118.238C254.239 118.628 256.905 115.453 257.542 111.14C258.178 106.828 256.543 103.018 253.897 102.627Z" fill="black"/>
</g>
<path d="M194.481 64.5774C193.375 64.2046 192.524 63.6455 191.927 62.9001C191.333 62.1496 190.986 61.2739 190.889 60.2728C190.791 59.2717 190.933 58.2027 191.317 57.066C191.7 55.9292 192.234 54.9921 192.918 54.2546C193.602 53.5171 194.407 53.0324 195.333 52.8005C196.261 52.5633 197.277 52.6312 198.383 53.0041C199.674 53.4394 200.617 54.1267 201.211 55.066C201.807 56.0002 202.069 57.074 201.998 58.2873L200.739 58.198C200.799 57.2386 200.61 56.3986 200.171 55.6778C199.733 54.9571 199.014 54.4285 198.017 54.092C197.147 53.7989 196.358 53.7533 195.648 53.9551C194.938 54.1569 194.317 54.5633 193.785 55.1743C193.259 55.7818 192.835 56.5468 192.513 57.4692C192.195 58.3933 192.062 59.2563 192.112 60.0581C192.168 60.8617 192.419 61.562 192.865 62.1592C193.318 62.753 193.979 63.1964 194.848 63.4896C195.846 63.826 196.737 63.8403 197.523 63.5323C198.31 63.2191 198.97 62.6653 199.501 61.8706L200.557 62.5617C199.879 63.5704 199.019 64.2687 197.977 64.6565C196.938 65.0391 195.772 65.0128 194.481 64.5774ZM201.107 66.5537L204.853 55.4433L209.143 56.8898C209.251 56.9262 209.37 56.9721 209.5 57.0275C209.637 57.0794 209.771 57.1417 209.901 57.2142C210.453 57.4977 210.876 57.8665 211.169 58.3207C211.47 58.7714 211.643 59.2707 211.687 59.8184C211.737 60.3679 211.663 60.9333 211.467 61.5145C211.185 62.3529 210.718 63.0062 210.068 63.4743C209.417 63.9424 208.654 64.1174 207.777 63.9994L207.352 63.9593L203.664 62.7157L202.241 66.9361L201.107 66.5537ZM207.835 68.8222L207.168 63.5621L208.396 63.5123L209.139 69.2619L207.835 68.8222ZM204.028 61.6356L207.153 62.6892C207.246 62.7204 207.355 62.7517 207.482 62.783C207.609 62.8143 207.736 62.8371 207.863 62.8513C208.272 62.8973 208.636 62.8454 208.955 62.6954C209.28 62.5472 209.556 62.3336 209.782 62.0545C210.013 61.7773 210.186 61.4663 210.302 61.1217C210.419 60.777 210.469 60.4245 210.453 60.0639C210.444 59.7 210.355 59.3607 210.186 59.0459C210.022 58.733 209.764 58.4712 209.411 58.2605C209.301 58.1949 209.186 58.1387 209.064 58.0919C208.944 58.04 208.838 57.9985 208.745 57.9673L205.62 56.9136L204.028 61.6356ZM210.842 69.8361L214.588 58.7257L221.532 61.0671L221.165 62.155L215.355 60.196L214.06 64.0384L218.944 65.6851L218.577 66.773L213.693 65.1263L212.343 69.1306L218.153 71.0896L217.786 72.1775L210.842 69.8361ZM218.871 72.5433L226.444 62.7233L227.948 63.2305L228.029 75.6313L226.849 75.2333L226.747 63.5302L227.195 63.6811L220.051 72.9413L218.871 72.5433ZM221.484 70.4255L221.843 69.3608L227.583 71.2963L227.224 72.361L221.484 70.4255ZM231.458 76.7875L234.838 66.765L230.957 65.4564L231.323 64.3685L240.219 67.3681L239.853 68.456L235.972 67.1474L232.592 77.1699L231.458 76.7875ZM237.865 78.9477L241.611 67.8373L242.745 68.2197L238.999 79.3301L237.865 78.9477ZM241.312 80.11L245.058 68.9996L246.2 69.3847L249.249 80.552L252.319 71.4477L253.461 71.8327L249.714 82.9431L248.572 82.5581L245.526 71.383L242.454 80.4951L241.312 80.11ZM256.25 85.4044C255.468 85.1408 254.809 84.7669 254.273 84.2827C253.738 83.7985 253.334 83.2298 253.061 82.5765C252.794 81.925 252.664 81.2053 252.672 80.4174C252.682 79.6244 252.835 78.7881 253.132 77.9086C253.524 76.7461 254.066 75.8004 254.758 75.0715C255.458 74.3393 256.266 73.8614 257.184 73.638C258.101 73.4146 259.09 73.4815 260.149 73.8388C261.332 74.2377 262.201 74.8398 262.754 75.645C263.314 76.4469 263.584 77.3628 263.563 78.3926L262.328 78.2854C262.315 77.5249 262.099 76.8478 261.681 76.2542C261.267 75.6622 260.649 75.2275 259.826 74.95C258.959 74.6518 258.17 74.6036 257.46 74.8054C256.752 75.0021 256.132 75.4059 255.6 76.0168C255.074 76.6244 254.653 77.3903 254.335 78.3144C254.018 79.2385 253.885 80.1015 253.935 80.9033C253.992 81.7017 254.244 82.3995 254.69 82.9967C255.138 83.5887 255.795 84.0339 256.663 84.3321C257.46 84.601 258.17 84.6686 258.794 84.5352C259.418 84.4017 259.96 84.0921 260.422 83.6061C260.889 83.122 261.273 82.4925 261.574 81.7176L259.013 80.8539L259.341 79.8818L263.09 81.1461C263.066 81.2696 263.031 81.3982 262.986 81.532C262.948 81.6623 262.919 81.7557 262.9 81.8123C262.562 82.8153 262.079 83.6522 261.452 84.3229C260.827 84.9885 260.074 85.4279 259.194 85.6412C258.322 85.851 257.34 85.7721 256.25 85.4044ZM268.8 89.3784L272.18 79.3559L268.299 78.0474L268.665 76.9595L277.562 79.959L277.195 81.0469L273.314 79.7383L269.934 89.7608L268.8 89.3784ZM279.473 93.2347C278.367 92.8618 277.516 92.3027 276.919 91.5574C276.324 90.8069 275.978 89.9311 275.88 88.93C275.782 87.9289 275.925 86.86 276.308 85.7233C276.692 84.5865 277.225 83.6494 277.909 82.9119C278.593 82.1744 279.398 81.6897 280.324 81.4577C281.252 81.2206 282.269 81.2885 283.375 81.6614C284.486 82.036 285.336 82.5977 285.926 83.3464C286.522 84.0918 286.87 84.965 286.967 85.9661C287.07 86.9689 286.93 88.0387 286.547 89.1755C286.164 90.3122 285.627 91.2485 284.938 91.9842C284.254 92.7217 283.448 93.209 282.521 93.4461C281.6 93.6798 280.584 93.6093 279.473 93.2347ZM279.84 92.1468C280.709 92.4399 281.501 92.4864 282.216 92.2864C282.93 92.0863 283.551 91.6825 284.076 91.0749C284.609 90.4639 285.031 89.6955 285.343 88.7696C285.656 87.8438 285.784 86.9791 285.728 86.1755C285.678 85.3737 285.429 84.6768 284.981 84.0847C284.533 83.4927 283.876 83.0475 283.008 82.7493C282.139 82.4562 281.349 82.4105 280.64 82.6124C279.93 82.8142 279.309 83.2206 278.777 83.8315C278.251 84.4391 277.829 85.205 277.512 86.1291C277.195 87.0532 277.061 87.9162 277.112 88.718C277.169 89.5164 277.421 90.2142 277.867 90.8114C278.314 91.4034 278.972 91.8486 279.84 92.1468ZM290.593 96.9842C289.811 96.7206 289.152 96.3467 288.617 95.8625C288.081 95.3782 287.677 94.8095 287.405 94.1563C287.137 93.5048 287.008 92.7851 287.016 91.9972C287.025 91.2042 287.178 90.3679 287.475 89.4883C287.867 88.3259 288.409 87.3802 289.102 86.6513C289.801 85.919 290.61 85.4412 291.527 85.2178C292.444 84.9944 293.433 85.0613 294.493 85.4186C295.676 85.8175 296.544 86.4196 297.097 87.2248C297.657 88.0267 297.927 88.9425 297.907 89.9724L296.671 89.8651C296.658 89.1047 296.442 88.4276 296.024 87.8339C295.611 87.242 294.992 86.8073 294.169 86.5298C293.302 86.2315 292.513 86.1833 291.804 86.3852C291.096 86.5818 290.476 86.9857 289.943 87.5966C289.417 88.2042 288.996 88.97 288.679 89.8942C288.361 90.8183 288.228 91.6813 288.278 92.4831C288.336 93.2815 288.587 93.9793 289.033 94.5765C289.481 95.1685 290.138 95.6137 291.006 95.9119C291.803 96.1807 292.514 96.2484 293.137 96.115C293.761 95.9815 294.303 95.6718 294.765 95.1859C295.232 94.7017 295.616 94.0722 295.918 93.2974L293.356 92.4337L293.684 91.4615L297.434 92.7259C297.409 92.8494 297.374 92.978 297.329 93.1117C297.291 93.2421 297.262 93.3355 297.243 93.3921C296.905 94.3951 296.422 95.232 295.795 95.9027C295.17 96.5683 294.417 97.0077 293.538 97.221C292.665 97.4308 291.683 97.3519 290.593 96.9842ZM297.099 98.9202L300.845 87.8098L307.789 90.1512L307.423 91.239L301.613 89.2801L300.317 93.1225L305.201 94.7692L304.834 95.8571L299.95 94.2104L298.6 98.2147L304.41 100.174L304.043 101.262L297.099 98.9202ZM308.855 102.884L312.234 92.8614L308.353 91.5529L308.72 90.465L317.616 93.4645L317.249 94.5524L313.368 93.2438L309.989 103.266L308.855 102.884ZM315.107 104.992L318.853 93.8817L319.988 94.2641L318.299 99.2715L324.441 101.342L326.129 96.3349L327.256 96.7147L323.509 107.825L322.383 107.445L324.074 102.43L317.932 100.359L316.241 105.375L315.107 104.992ZM325.671 108.554L329.417 97.4435L336.361 99.7849L335.994 100.873L330.184 98.9138L328.889 102.756L333.773 104.403L333.406 105.491L328.522 103.844L327.172 107.848L332.982 109.807L332.615 110.895L325.671 108.554ZM334.471 111.521L338.218 100.411L342.507 101.857C342.615 101.894 342.735 101.94 342.865 101.995C343.002 102.047 343.136 102.109 343.266 102.182C343.818 102.465 344.24 102.834 344.534 103.288C344.835 103.739 345.007 104.238 345.052 104.786C345.101 105.335 345.028 105.901 344.832 106.482C344.549 107.32 344.083 107.974 343.432 108.442C342.782 108.91 342.018 109.085 341.141 108.967L340.717 108.927L337.029 107.683L335.606 111.904L334.471 111.521ZM341.199 113.79L340.533 108.53L341.761 108.48L342.503 114.229L341.199 113.79ZM337.393 106.603L340.518 107.657C340.61 107.688 340.72 107.719 340.847 107.751C340.974 107.782 341.101 107.805 341.228 107.819C341.636 107.865 342 107.813 342.32 107.663C342.645 107.515 342.92 107.301 343.146 107.022C343.377 106.745 343.551 106.434 343.667 106.089C343.783 105.745 343.833 105.392 343.817 105.031C343.808 104.668 343.719 104.328 343.551 104.013C343.387 103.701 343.129 103.439 342.776 103.228C342.666 103.162 342.55 103.106 342.429 103.059C342.309 103.008 342.202 102.966 342.11 102.935L338.985 101.881L337.393 106.603Z" fill="black"/>
<path d="M230.229 52.7436L233.975 41.6332L235.109 42.0156L231.73 52.0381L237.007 53.8175L236.641 54.9054L230.229 52.7436ZM237.956 55.3489L241.702 44.2385L248.646 46.5799L248.279 47.6678L242.469 45.7088L241.174 49.5512L246.058 51.1979L245.691 52.2858L240.807 50.6391L239.457 54.6435L245.267 56.6024L244.9 57.6903L237.956 55.3489ZM249.711 59.3127L253.091 49.2902L249.21 47.9816L249.577 46.8937L258.473 49.8932L258.106 50.9811L254.225 49.6726L250.846 59.6951L249.711 59.3127ZM258.619 53.036L259.556 50.2584L260.69 50.6408L259.753 53.4184L258.619 53.036ZM262.742 63.9642C261.966 63.7023 261.31 63.3378 260.774 62.8708C260.245 62.4003 259.858 61.8574 259.613 61.242C259.373 60.6284 259.302 59.9716 259.401 59.2716L260.623 59.4689C260.566 60.2514 260.766 60.9491 261.224 61.5617C261.683 62.1693 262.327 62.6127 263.156 62.8919C263.701 63.0757 264.218 63.1556 264.707 63.1316C265.198 63.1024 265.621 62.9699 265.976 62.7343C266.33 62.4986 266.581 62.1622 266.728 61.725C266.825 61.4369 266.856 61.1752 266.821 60.9399C266.788 60.6995 266.709 60.4838 266.584 60.2928C266.459 60.1019 266.311 59.9288 266.14 59.7738C265.971 59.6135 265.801 59.4731 265.629 59.3523L263.097 57.5618C262.79 57.3496 262.518 57.1203 262.28 56.874C262.044 56.6226 261.854 56.355 261.709 56.0713C261.571 55.7841 261.491 55.4766 261.47 55.1486C261.449 54.8207 261.501 54.4716 261.626 54.1012C261.837 53.4737 262.185 52.9865 262.668 52.6397C263.152 52.2929 263.721 52.0924 264.375 52.038C265.029 51.9836 265.721 52.0821 266.449 52.3335C267.19 52.5833 267.807 52.9373 268.299 53.3956C268.797 53.8556 269.154 54.3942 269.37 55.0112C269.588 55.623 269.646 56.2815 269.546 56.9867L268.285 56.8021C268.371 56.2926 268.335 55.8135 268.177 55.3649C268.019 54.9164 267.756 54.5241 267.388 54.1881C267.027 53.8487 266.59 53.5897 266.077 53.4111C265.578 53.2429 265.105 53.1777 264.657 53.2156C264.215 53.2502 263.833 53.3733 263.51 53.585C263.186 53.7968 262.962 54.0878 262.837 54.4582C262.71 54.8337 262.712 55.1692 262.841 55.4649C262.976 55.7624 263.173 56.0265 263.433 56.2575C263.699 56.4901 263.961 56.6962 264.222 56.8756L266.182 58.2496C266.387 58.3876 266.622 58.567 266.885 58.7876C267.156 59.0048 267.399 59.27 267.614 59.5832C267.836 59.8929 267.984 60.2522 268.058 60.661C268.132 61.0698 268.08 61.5391 267.901 62.0689C267.728 62.5833 267.47 63.0089 267.127 63.3459C266.789 63.6846 266.389 63.9304 265.925 64.0833C265.466 64.2379 264.965 64.304 264.423 64.2815C263.884 64.2659 263.324 64.1602 262.742 63.9642ZM275.34 68.212C274.564 67.9501 273.908 67.5856 273.372 67.1186C272.843 66.6481 272.456 66.1052 272.211 65.4898C271.971 64.8762 271.901 64.2194 271.999 63.5193L273.221 63.7167C273.164 64.4992 273.364 65.1968 273.822 65.8095C274.282 66.4171 274.925 66.8604 275.754 67.1397C276.299 67.3235 276.816 67.4034 277.305 67.3793C277.796 67.3501 278.219 67.2177 278.574 66.9821C278.928 66.7464 279.179 66.41 279.326 65.9727C279.423 65.6847 279.454 65.423 279.419 65.1877C279.386 64.9473 279.307 64.7316 279.182 64.5406C279.057 64.3497 278.909 64.1766 278.738 64.0215C278.569 63.8613 278.399 63.7208 278.227 63.6001L275.695 61.8095C275.388 61.5973 275.116 61.3681 274.878 61.1218C274.642 60.8704 274.452 60.6028 274.307 60.319C274.169 60.0319 274.089 59.7244 274.068 59.3964C274.047 59.0685 274.099 58.7193 274.224 58.349C274.435 57.7215 274.783 57.2343 275.266 56.8875C275.75 56.5407 276.319 56.3401 276.973 56.2858C277.627 56.2314 278.319 56.3299 279.047 56.5813C279.788 56.831 280.405 57.1851 280.897 57.6434C281.395 58.1034 281.752 58.6419 281.968 59.2589C282.186 59.8708 282.244 60.5293 282.144 61.2345L280.883 61.0499C280.969 60.5403 280.933 60.0613 280.775 59.6127C280.617 59.1641 280.354 58.7719 279.986 58.4359C279.625 58.0965 279.188 57.8375 278.675 57.6589C278.176 57.4906 277.703 57.4255 277.255 57.4634C276.813 57.498 276.431 57.6211 276.108 57.8328C275.784 58.0446 275.56 58.3356 275.435 58.7059C275.309 59.0814 275.31 59.417 275.439 59.7127C275.574 60.0102 275.771 60.2743 276.031 60.5052C276.297 60.7379 276.559 60.9439 276.82 61.1234L278.78 62.4974C278.985 62.6354 279.22 62.8147 279.483 63.0354C279.754 63.2526 279.997 63.5178 280.212 63.831C280.434 64.1407 280.582 64.5 280.656 64.9088C280.73 65.3176 280.678 65.7869 280.499 66.3167C280.326 66.831 280.068 67.2567 279.725 67.5937C279.387 67.9324 278.987 68.1782 278.523 68.3311C278.064 68.4857 277.563 68.5518 277.021 68.5293C276.482 68.5137 275.922 68.4079 275.34 68.212ZM284.025 70.8823L287.404 60.8598L283.523 59.5512L283.89 58.4633L292.786 61.4629L292.419 62.5508L288.538 61.2422L285.159 71.2647L284.025 70.8823ZM289.204 72.6287L296.777 62.8086L298.282 63.3159L298.362 75.7167L297.182 75.3186L297.081 63.6156L297.528 63.7665L290.385 73.0267L289.204 72.6287ZM291.817 70.5109L292.176 69.4461L297.916 71.3816L297.557 72.4464L291.817 70.5109ZM299.756 76.1864L303.502 65.076L307.792 66.5225C307.9 66.5589 308.019 66.6048 308.149 66.6602C308.286 66.7121 308.42 66.7744 308.55 66.847C309.102 67.1304 309.525 67.4992 309.818 67.9534C310.119 68.4041 310.291 68.9034 310.336 69.4511C310.385 70.0006 310.312 70.566 310.116 71.1472C309.834 71.9856 309.367 72.6389 308.716 73.107C308.066 73.5751 307.302 73.7501 306.426 73.6321L306.001 73.592L302.313 72.3484L300.89 76.5689L299.756 76.1864ZM306.484 78.455L305.817 73.1948L307.045 73.145L307.788 78.8946L306.484 78.455ZM302.677 71.2683L305.802 72.3219C305.894 72.3531 306.004 72.3844 306.131 72.4157C306.258 72.447 306.385 72.4698 306.512 72.484C306.92 72.53 307.284 72.4781 307.604 72.3281C307.929 72.1799 308.205 71.9663 308.43 71.6873C308.661 71.41 308.835 71.099 308.951 70.7544C309.067 70.4098 309.118 70.0572 309.102 69.6966C309.093 69.3327 309.004 68.9934 308.835 68.6787C308.671 68.3657 308.413 68.1039 308.06 67.8932C307.95 67.8276 307.835 67.7714 307.713 67.7247C307.593 67.6727 307.487 67.6312 307.394 67.6L304.269 66.5463L302.677 71.2683ZM312.446 80.4652L315.825 70.4427L311.944 69.1341L312.311 68.0462L321.207 71.0458L320.84 72.1337L316.959 70.8251L313.58 80.8476L312.446 80.4652Z" fill="black"/>
<path d="M218.021 41.6409L216.982 44.7218C215.823 48.1598 212.096 50.0072 208.658 48.8479L195.03 44.2528C187.888 41.8445 180.145 45.6824 177.737 52.8249C175.329 59.9673 179.166 67.7098 186.309 70.1181L340.473 122.099C347.616 124.507 355.358 120.669 357.766 113.527C360.175 106.384 356.337 98.6419 349.194 96.2336L335.647 91.6658C332.22 90.5101 330.378 86.7946 331.534 83.367L332.579 80.2672C334.89 73.4145 331.207 65.9861 324.355 63.6755L234.613 33.4166C227.76 31.106 220.332 34.7882 218.021 41.6409Z" stroke="black"/>
<rect x="109.661" y="59.2866" width="96.1411" height="27.4282" rx="13.7141" transform="rotate(-32.9463 109.661 59.2866)" fill="#2ED06E"/>
<path d="M133.113 67.5802L126.737 57.7409L130.536 55.2788C130.631 55.2168 130.741 55.152 130.866 55.0843C130.992 55.0092 131.123 54.9431 131.261 54.8862C131.826 54.63 132.378 54.528 132.916 54.5802C133.456 54.6248 133.954 54.7999 134.411 55.1055C134.872 55.4081 135.27 55.8168 135.604 56.3315C135.934 56.8417 136.143 57.3691 136.231 57.9138C136.319 58.4585 136.274 58.9886 136.098 59.5043C135.922 60.0124 135.605 60.4705 135.145 60.8786C135.034 60.9766 134.919 61.0699 134.802 61.1587C134.69 61.2446 134.586 61.3185 134.49 61.3805L131.695 63.1917L134.118 66.9293L133.113 67.5802ZM131.075 62.2351L133.843 60.4416C133.925 60.3885 134.017 60.322 134.121 60.242C134.224 60.162 134.321 60.0767 134.411 59.986C134.701 59.6947 134.886 59.3772 134.968 59.0334C135.054 58.6867 135.057 58.3382 134.979 57.9879C134.905 57.6346 134.77 57.3054 134.572 57.0002C134.374 56.695 134.129 56.4366 133.837 56.225C133.546 56.0059 133.225 55.8647 132.873 55.8015C132.526 55.7352 132.161 55.7749 131.776 55.9205C131.657 55.9656 131.541 56.0213 131.429 56.0876C131.313 56.1493 131.215 56.2068 131.133 56.2599L128.365 58.0534L131.075 62.2351ZM145.477 59.8585C144.498 60.4932 143.531 60.8127 142.576 60.8169C141.619 60.8165 140.717 60.5435 139.872 59.9981C139.027 59.4526 138.278 58.6765 137.626 57.6698C136.973 56.6631 136.571 55.6626 136.418 54.6684C136.265 53.6742 136.386 52.7423 136.78 51.8726C137.17 50.9984 137.855 50.2439 138.835 49.6092C139.819 48.9715 140.787 48.6544 141.74 48.6577C142.695 48.6535 143.595 48.9242 144.44 49.4697C145.29 50.0122 146.041 50.7868 146.693 51.7935C147.345 52.8002 147.746 53.8022 147.894 54.7993C148.047 55.7935 147.928 56.7277 147.537 57.602C147.148 58.4687 146.461 59.2209 145.477 59.8585ZM144.853 58.8951C145.623 58.3962 146.151 57.8046 146.439 57.1202C146.726 56.4359 146.795 55.699 146.646 54.9096C146.498 54.1127 146.158 53.3043 145.627 52.4843C145.096 51.6644 144.498 51.0265 143.834 50.5707C143.174 50.112 142.474 49.874 141.731 49.8568C140.989 49.8397 140.232 50.0783 139.459 50.5726C138.689 51.0716 138.163 51.6617 137.88 52.3431C137.597 53.0245 137.53 53.7636 137.677 54.5605C137.827 55.3499 138.165 56.1561 138.692 56.979C139.219 57.8019 139.812 58.4427 140.471 58.9015C141.132 59.3527 141.835 59.5892 142.58 59.6109C143.323 59.6281 144.08 59.3895 144.853 58.8951ZM154.799 53.8172C154.111 54.263 153.418 54.5506 152.719 54.6801C152.022 54.802 151.356 54.7678 150.722 54.5774C150.092 54.384 149.533 54.0312 149.046 53.519L149.96 52.6839C150.538 53.2154 151.209 53.4921 151.973 53.5141C152.735 53.5315 153.482 53.3025 154.216 52.8272C154.698 52.5143 155.083 52.1587 155.368 51.7604C155.65 51.3575 155.809 50.944 155.845 50.5199C155.88 50.0958 155.773 49.6901 155.522 49.3029C155.356 49.0478 155.171 48.861 154.964 48.7424C154.755 48.6192 154.537 48.5471 154.31 48.5261C154.083 48.5051 153.855 48.5134 153.627 48.5511C153.397 48.5842 153.181 48.6304 152.98 48.6895L150.003 49.561C149.646 49.6693 149.298 49.7401 148.957 49.7733C148.613 49.8019 148.285 49.7849 147.973 49.7221C147.662 49.6518 147.372 49.5231 147.102 49.3359C146.832 49.1487 146.59 48.8911 146.378 48.5631C146.017 48.0074 145.852 47.4323 145.881 46.838C145.909 46.2436 146.106 45.6733 146.47 45.1269C146.834 44.5806 147.34 44.1001 147.99 43.6855C148.646 43.2603 149.307 42.9971 149.972 42.8959C150.642 42.7916 151.286 42.8467 151.903 43.061C152.518 43.2707 153.07 43.634 153.56 44.1507L152.632 45.024C152.286 44.6401 151.889 44.3707 151.439 44.2158C150.989 44.0609 150.518 44.0232 150.027 44.1026C149.536 44.1745 149.062 44.3558 148.603 44.6465C148.162 44.9328 147.816 45.2634 147.567 45.6381C147.32 46.0052 147.179 46.3813 147.144 46.7663C147.109 47.1513 147.198 47.5078 147.41 47.8358C147.626 48.1683 147.889 48.3757 148.202 48.4581C148.518 48.5375 148.848 48.547 149.19 48.4867C149.538 48.4235 149.862 48.3456 150.165 48.2532L152.459 47.5716C152.695 47.4963 152.981 47.424 153.318 47.3546C153.656 47.2777 154.015 47.2522 154.394 47.2782C154.775 47.2967 155.148 47.404 155.514 47.5999C155.881 47.7959 156.216 48.1285 156.52 48.5977C156.815 49.0532 156.988 49.5199 157.039 49.9979C157.095 50.4729 157.038 50.9397 156.87 51.3982C156.706 51.8538 156.446 52.2871 156.092 52.698C155.745 53.1106 155.314 53.4837 154.799 53.8172ZM159.807 50.2804L153.431 40.441L154.435 39.79L160.812 49.6294L159.807 50.2804ZM165.477 46.6058L159.725 37.7299L156.288 39.9573L155.664 38.9939L163.542 33.8881L164.166 34.8515L160.729 37.0789L166.482 45.9549L165.477 46.6058ZM171.151 42.9288L164.774 33.0894L165.779 32.4385L172.155 42.2778L171.151 42.9288ZM176.705 39.3295L166.939 31.6866L167.984 31.0091L176.621 37.7633L174.004 27.1078L175.05 26.4303L178.037 38.466L176.705 39.3295ZM182.451 35.6053L176.075 25.7659L182.224 21.7805L182.849 22.7439L177.704 26.0784L179.909 29.4812L184.234 26.6781L184.858 27.6415L180.533 30.4446L182.832 33.9909L187.977 30.6564L188.601 31.6198L182.451 35.6053Z" fill="white"/>
<rect x="2.5" y="241.5" width="71.1411" height="26.4282" rx="13.2141" stroke="black"/>
<path d="M23.7417 254.559L23.1066 255.585C21.6898 255.015 20.6802 253.94 20.1591 252.621C19.6868 254.054 18.6772 255.226 17.2278 255.829L16.5765 254.852C18.4329 254.086 19.5077 252.311 19.5077 250.471V250.308H16.8696V249.234H19.5077V247.475H20.7779V249.234H23.3834V250.308H20.7779V250.471C20.7779 252.197 21.8853 253.859 23.7417 254.559ZM18.9703 258.141V257.05H28.79V261.919H27.4546V258.141H18.9703ZM27.5035 247.328H28.79V256.285H27.5035V252.311H25.6633V256.187H24.4094V247.573H25.6633V251.22H27.5035V247.328ZM42.0933 247.328H43.4286V255.682H42.0933V247.328ZM33.9835 256.464H43.4286V261.724H33.9835V256.464ZM42.1258 257.523H35.2863V260.649H42.1258V257.523ZM35.5794 248.094C37.7941 248.094 39.4063 249.478 39.4063 251.497C39.4063 253.517 37.7941 254.901 35.5794 254.901C33.381 254.901 31.7851 253.517 31.7851 251.497C31.7851 249.478 33.381 248.094 35.5794 248.094ZM35.5794 249.201C34.1301 249.201 33.0878 250.162 33.0878 251.497C33.0878 252.849 34.1301 253.793 35.5794 253.793C37.045 253.793 38.1035 252.849 38.1035 251.497C38.1035 250.162 37.045 249.201 35.5794 249.201ZM47.0588 248.24H53.8007C53.8007 251.953 51.2277 254.575 46.9285 255.748L46.4074 254.689C49.9738 253.728 52.1071 251.807 52.3676 249.331H47.0588V248.24ZM49.8761 257.36V260.633H56.4388V257.36H49.8761ZM48.557 261.708V256.285H57.7578V261.708H48.557ZM59.9237 250.878V251.986H57.7578V255.601H56.4225V247.296H57.7578V250.878H59.9237Z" fill="black"/>
<rect x="28.702" y="194.608" width="71.1411" height="26.4282" rx="13.2141" transform="rotate(-38.11 28.702 194.608)" stroke="black"/>
<path d="M52.7155 183.18L59.2986 191.572L58.2479 192.396L51.6648 184.004L52.7155 183.18ZM47.4133 193.175C48.3078 194.315 49.7766 194.446 50.8914 193.572C52.0318 192.677 52.2543 191.22 51.3598 190.079C50.4854 188.965 49.0166 188.834 47.8762 189.728C46.7615 190.602 46.5389 192.06 47.4133 193.175ZM52.3849 189.275C53.6914 190.941 53.3219 193.135 51.605 194.482C49.9008 195.818 47.6948 195.645 46.3883 193.979C45.0918 192.326 45.4585 190.155 47.1627 188.818C48.8796 187.472 51.0884 187.622 52.3849 189.275ZM54.5038 198.52L61.1923 193.274L61.8657 194.133L54.1265 200.203L51.2319 196.513L52.2826 195.689L54.5038 198.52ZM57.7721 181.449L62.6365 187.65C63.7284 186.773 64.8853 185.741 66.0453 184.397L66.8614 185.226C65.5421 186.737 64.2726 187.836 63.0297 188.811L62.2994 189.384L56.7214 182.273L57.7721 181.449ZM63.8007 174.464L64.8129 173.67L73.8182 185.15L72.8059 185.944L68.1526 180.012L66.5253 181.288L70.7264 186.644L69.7398 187.418L61.3878 176.77L62.3744 175.996L65.8418 180.417L67.4691 179.141L63.8007 174.464ZM77.8873 171.817L78.0153 173.062C76.3337 173.636 74.5192 173.487 73.0189 172.656C73.5645 174.38 73.3351 176.278 72.3689 177.843L71.1875 177.445C72.4377 175.45 72.4104 172.988 71.0838 171.297L70.2094 170.182L71.26 169.358L72.1344 170.473C73.4108 172.1 75.7409 172.59 77.8873 171.817ZM76.1748 177.735L78.1045 180.195L83.4861 175.974L81.5564 173.513L76.1748 177.735ZM77.7428 181.844L74.4965 177.706L81.9281 171.876L85.1744 176.015L77.7428 181.844ZM75.2392 165.512L76.2898 164.688L81.4156 171.223L80.3649 172.047L75.2392 165.512Z" fill="black"/>
</g>
<defs>
<clipPath id="clip0_569_3772">
<rect width="360" height="270" fill="white"/>
</clipPath>
<clipPath id="clip1_569_3772">
<rect width="30.9873" height="29.1636" fill="white" transform="translate(242.465 94.1875) rotate(8.39531)"/>
</clipPath>
</defs>
</svg>
